<?xml version="1.0" standalone="no"?>
 <!DOCTYPE svg PUBLIC "-//W3C//DTD SVG 1.1//EN" 
 "http://www.w3.org/Graphics/SVG/1.1/DTD/svg11.dtd"> 
<svg xmlns="http://www.w3.org/2000/svg" version="1.1" 
    width="29.7002cm" height="21.0007cm" viewBox="0 0 116930 82680 ">
<title>SVG Picture created as verilog-alu-kicad-F_Mask.svg date 2020/01/07 10:43:02 </title>
  <desc>Picture generated by PCBNEW </desc>
<g style="fill:#000000; fill-opacity:1;stroke:#000000; stroke-opacity:1;
stroke-linecap:round; stroke-linejoin:round; "
 transform="translate(0 0) scale(1 1)">
</g>
<g style="fill:#000000; fill-opacity:0.0; 
stroke:#000000; stroke-width:-0.000393701; stroke-opacity:1; 
stroke-linecap:round; stroke-linejoin:round;">
</g>
<g style="fill:#000000; fill-opacity:0.0; 
stroke:#000000; stroke-width:39.3701; stroke-opacity:1; 
stroke-linecap:round; stroke-linejoin:round;">
</g>
<g style="fill:#000000; fill-opacity:0.0; 
stroke:#000000; stroke-width:59.0551; stroke-opacity:1; 
stroke-linecap:round; stroke-linejoin:round;">
<rect x="69685.9" y="65357.2" width="42519.7" height="12598.4" rx="0" />
</g>
<g style="fill:#000000; fill-opacity:0.0; 
stroke:#000000; stroke-width:39.3701; stroke-opacity:1; 
stroke-linecap:round; stroke-linejoin:round;">
</g>
<g style="fill:#000000; fill-opacity:0.0; 
stroke:#000000; stroke-width:59.0551; stroke-opacity:1; 
stroke-linecap:round; stroke-linejoin:round;">
<rect x="3937.01" y="3937.01" width="109056" height="74806" rx="0" />
</g>
<g style="fill:#000000; fill-opacity:0.0; 
stroke:#000000; stroke-width:39.3701; stroke-opacity:1; 
stroke-linecap:round; stroke-linejoin:round;">
</g>
<g style="fill:#000000; fill-opacity:0.0; 
stroke:#000000; stroke-width:59.0551; stroke-opacity:1; 
stroke-linecap:round; stroke-linejoin:round;">
<rect x="4724.41" y="4724.41" width="107481" height="73231.2" rx="0" />
</g>
<g style="fill:#000000; fill-opacity:0.0; 
stroke:#000000; stroke-width:39.3701; stroke-opacity:1; 
stroke-linecap:round; stroke-linejoin:round;">
</g>
<g style="fill:#000000; fill-opacity:0.0; 
stroke:#000000; stroke-width:59.0551; stroke-opacity:1; 
stroke-linecap:round; stroke-linejoin:round;">
<path d="M23622 4724
L23622 3937
" />
</g>
<g style="fill:#000000; fill-opacity:0.0; 
stroke:#000000; stroke-width:39.3701; stroke-opacity:1; 
stroke-linecap:round; stroke-linejoin:round;">
</g>
<g style="fill:#000000; fill-opacity:0.0; 
stroke:#000000; stroke-width:59.0551; stroke-opacity:1; 
stroke-linecap:round; stroke-linejoin:round;">
<path d="M43307 4724
L43307 3937
" />
</g>
<g style="fill:#000000; fill-opacity:0.0; 
stroke:#000000; stroke-width:39.3701; stroke-opacity:1; 
stroke-linecap:round; stroke-linejoin:round;">
</g>
<g style="fill:#000000; fill-opacity:0.0; 
stroke:#000000; stroke-width:59.0551; stroke-opacity:1; 
stroke-linecap:round; stroke-linejoin:round;">
<path d="M62992 4724
L62992 3937
" />
</g>
<g style="fill:#000000; fill-opacity:0.0; 
stroke:#000000; stroke-width:39.3701; stroke-opacity:1; 
stroke-linecap:round; stroke-linejoin:round;">
</g>
<g style="fill:#000000; fill-opacity:0.0; 
stroke:#000000; stroke-width:59.0551; stroke-opacity:1; 
stroke-linecap:round; stroke-linejoin:round;">
<path d="M82677 4724
L82677 3937
" />
</g>
<g style="fill:#000000; fill-opacity:0.0; 
stroke:#000000; stroke-width:39.3701; stroke-opacity:1; 
stroke-linecap:round; stroke-linejoin:round;">
</g>
<g style="fill:#000000; fill-opacity:0.0; 
stroke:#000000; stroke-width:59.0551; stroke-opacity:1; 
stroke-linecap:round; stroke-linejoin:round;">
<path d="M102362 4724
L102362 3937
" />
</g>
<g style="fill:#000000; fill-opacity:0.0; 
stroke:#000000; stroke-width:39.3701; stroke-opacity:1; 
stroke-linecap:round; stroke-linejoin:round;">
</g>
<g style="fill:#000000; fill-opacity:0.0; 
stroke:#000000; stroke-width:59.0551; stroke-opacity:1; 
stroke-linecap:round; stroke-linejoin:round;">
<path d="M14199 4562
L13906 4562
" />
<path d="M14052 4562
L14052 4050
L14004 4123
L13955 4172
L13906 4196
" />
</g>
<g style="fill:#000000; fill-opacity:0.0; 
stroke:#000000; stroke-width:39.3701; stroke-opacity:1; 
stroke-linecap:round; stroke-linejoin:round;">
</g>
<g style="fill:#000000; fill-opacity:0.0; 
stroke:#000000; stroke-width:59.0551; stroke-opacity:1; 
stroke-linecap:round; stroke-linejoin:round;">
<path d="M33591 4099
L33615 4074
L33664 4050
L33786 4050
L33835 4074
L33859 4099
L33884 4147
L33884 4196
L33859 4269
L33567 4562
L33884 4562
" />
</g>
<g style="fill:#000000; fill-opacity:0.0; 
stroke:#000000; stroke-width:39.3701; stroke-opacity:1; 
stroke-linecap:round; stroke-linejoin:round;">
</g>
<g style="fill:#000000; fill-opacity:0.0; 
stroke:#000000; stroke-width:59.0551; stroke-opacity:1; 
stroke-linecap:round; stroke-linejoin:round;">
<path d="M53252 4050
L53569 4050
L53398 4245
L53471 4245
L53520 4269
L53544 4294
L53569 4342
L53569 4464
L53544 4513
L53520 4537
L53471 4562
L53325 4562
L53276 4537
L53252 4513
" />
</g>
<g style="fill:#000000; fill-opacity:0.0; 
stroke:#000000; stroke-width:39.3701; stroke-opacity:1; 
stroke-linecap:round; stroke-linejoin:round;">
</g>
<g style="fill:#000000; fill-opacity:0.0; 
stroke:#000000; stroke-width:59.0551; stroke-opacity:1; 
stroke-linecap:round; stroke-linejoin:round;">
<path d="M73205 4221
L73205 4562
" />
<path d="M73083 4026
L72961 4391
L73278 4391
" />
</g>
<g style="fill:#000000; fill-opacity:0.0; 
stroke:#000000; stroke-width:39.3701; stroke-opacity:1; 
stroke-linecap:round; stroke-linejoin:round;">
</g>
<g style="fill:#000000; fill-opacity:0.0; 
stroke:#000000; stroke-width:59.0551; stroke-opacity:1; 
stroke-linecap:round; stroke-linejoin:round;">
<path d="M92914 4050
L92671 4050
L92646 4294
L92671 4269
L92719 4245
L92841 4245
L92890 4269
L92914 4294
L92939 4342
L92939 4464
L92914 4513
L92890 4537
L92841 4562
L92719 4562
L92671 4537
L92646 4513
" />
</g>
<g style="fill:#000000; fill-opacity:0.0; 
stroke:#000000; stroke-width:39.3701; stroke-opacity:1; 
stroke-linecap:round; stroke-linejoin:round;">
</g>
<g style="fill:#000000; fill-opacity:0.0; 
stroke:#000000; stroke-width:59.0551; stroke-opacity:1; 
stroke-linecap:round; stroke-linejoin:round;">
<path d="M112575 4050
L112477 4050
L112429 4074
L112404 4099
L112356 4172
L112331 4269
L112331 4464
L112356 4513
L112380 4537
L112429 4562
L112526 4562
L112575 4537
L112599 4513
L112624 4464
L112624 4342
L112599 4294
L112575 4269
L112526 4245
L112429 4245
L112380 4269
L112356 4294
L112331 4342
" />
</g>
<g style="fill:#000000; fill-opacity:0.0; 
stroke:#000000; stroke-width:39.3701; stroke-opacity:1; 
stroke-linecap:round; stroke-linejoin:round;">
</g>
<g style="fill:#000000; fill-opacity:0.0; 
stroke:#000000; stroke-width:59.0551; stroke-opacity:1; 
stroke-linecap:round; stroke-linejoin:round;">
<path d="M23622 77955
L23622 78742
" />
</g>
<g style="fill:#000000; fill-opacity:0.0; 
stroke:#000000; stroke-width:39.3701; stroke-opacity:1; 
stroke-linecap:round; stroke-linejoin:round;">
</g>
<g style="fill:#000000; fill-opacity:0.0; 
stroke:#000000; stroke-width:59.0551; stroke-opacity:1; 
stroke-linecap:round; stroke-linejoin:round;">
<path d="M43307 77955
L43307 78742
" />
</g>
<g style="fill:#000000; fill-opacity:0.0; 
stroke:#000000; stroke-width:39.3701; stroke-opacity:1; 
stroke-linecap:round; stroke-linejoin:round;">
</g>
<g style="fill:#000000; fill-opacity:0.0; 
stroke:#000000; stroke-width:59.0551; stroke-opacity:1; 
stroke-linecap:round; stroke-linejoin:round;">
<path d="M62992 77955
L62992 78742
" />
</g>
<g style="fill:#000000; fill-opacity:0.0; 
stroke:#000000; stroke-width:39.3701; stroke-opacity:1; 
stroke-linecap:round; stroke-linejoin:round;">
</g>
<g style="fill:#000000; fill-opacity:0.0; 
stroke:#000000; stroke-width:59.0551; stroke-opacity:1; 
stroke-linecap:round; stroke-linejoin:round;">
<path d="M82677 77955
L82677 78742
" />
</g>
<g style="fill:#000000; fill-opacity:0.0; 
stroke:#000000; stroke-width:39.3701; stroke-opacity:1; 
stroke-linecap:round; stroke-linejoin:round;">
</g>
<g style="fill:#000000; fill-opacity:0.0; 
stroke:#000000; stroke-width:59.0551; stroke-opacity:1; 
stroke-linecap:round; stroke-linejoin:round;">
<path d="M102362 77955
L102362 78742
" />
</g>
<g style="fill:#000000; fill-opacity:0.0; 
stroke:#000000; stroke-width:39.3701; stroke-opacity:1; 
stroke-linecap:round; stroke-linejoin:round;">
</g>
<g style="fill:#000000; fill-opacity:0.0; 
stroke:#000000; stroke-width:59.0551; stroke-opacity:1; 
stroke-linecap:round; stroke-linejoin:round;">
<path d="M14199 78580
L13906 78580
" />
<path d="M14052 78580
L14052 78069
L14004 78142
L13955 78190
L13906 78215
" />
</g>
<g style="fill:#000000; fill-opacity:0.0; 
stroke:#000000; stroke-width:39.3701; stroke-opacity:1; 
stroke-linecap:round; stroke-linejoin:round;">
</g>
<g style="fill:#000000; fill-opacity:0.0; 
stroke:#000000; stroke-width:59.0551; stroke-opacity:1; 
stroke-linecap:round; stroke-linejoin:round;">
<path d="M33591 78117
L33615 78093
L33664 78069
L33786 78069
L33835 78093
L33859 78117
L33884 78166
L33884 78215
L33859 78288
L33567 78580
L33884 78580
" />
</g>
<g style="fill:#000000; fill-opacity:0.0; 
stroke:#000000; stroke-width:39.3701; stroke-opacity:1; 
stroke-linecap:round; stroke-linejoin:round;">
</g>
<g style="fill:#000000; fill-opacity:0.0; 
stroke:#000000; stroke-width:59.0551; stroke-opacity:1; 
stroke-linecap:round; stroke-linejoin:round;">
<path d="M53252 78069
L53569 78069
L53398 78263
L53471 78263
L53520 78288
L53544 78312
L53569 78361
L53569 78483
L53544 78532
L53520 78556
L53471 78580
L53325 78580
L53276 78556
L53252 78532
" />
</g>
<g style="fill:#000000; fill-opacity:0.0; 
stroke:#000000; stroke-width:39.3701; stroke-opacity:1; 
stroke-linecap:round; stroke-linejoin:round;">
</g>
<g style="fill:#000000; fill-opacity:0.0; 
stroke:#000000; stroke-width:59.0551; stroke-opacity:1; 
stroke-linecap:round; stroke-linejoin:round;">
<path d="M73205 78239
L73205 78580
" />
<path d="M73083 78044
L72961 78410
L73278 78410
" />
</g>
<g style="fill:#000000; fill-opacity:0.0; 
stroke:#000000; stroke-width:39.3701; stroke-opacity:1; 
stroke-linecap:round; stroke-linejoin:round;">
</g>
<g style="fill:#000000; fill-opacity:0.0; 
stroke:#000000; stroke-width:59.0551; stroke-opacity:1; 
stroke-linecap:round; stroke-linejoin:round;">
<path d="M92914 78069
L92671 78069
L92646 78312
L92671 78288
L92719 78263
L92841 78263
L92890 78288
L92914 78312
L92939 78361
L92939 78483
L92914 78532
L92890 78556
L92841 78580
L92719 78580
L92671 78556
L92646 78532
" />
</g>
<g style="fill:#000000; fill-opacity:0.0; 
stroke:#000000; stroke-width:39.3701; stroke-opacity:1; 
stroke-linecap:round; stroke-linejoin:round;">
</g>
<g style="fill:#000000; fill-opacity:0.0; 
stroke:#000000; stroke-width:59.0551; stroke-opacity:1; 
stroke-linecap:round; stroke-linejoin:round;">
<path d="M112575 78069
L112477 78069
L112429 78093
L112404 78117
L112356 78190
L112331 78288
L112331 78483
L112356 78532
L112380 78556
L112429 78580
L112526 78580
L112575 78556
L112599 78532
L112624 78483
L112624 78361
L112599 78312
L112575 78288
L112526 78263
L112429 78263
L112380 78288
L112356 78312
L112331 78361
" />
</g>
<g style="fill:#000000; fill-opacity:0.0; 
stroke:#000000; stroke-width:39.3701; stroke-opacity:1; 
stroke-linecap:round; stroke-linejoin:round;">
</g>
<g style="fill:#000000; fill-opacity:0.0; 
stroke:#000000; stroke-width:59.0551; stroke-opacity:1; 
stroke-linecap:round; stroke-linejoin:round;">
<path d="M3937 23622
L4724 23622
" />
</g>
<g style="fill:#000000; fill-opacity:0.0; 
stroke:#000000; stroke-width:39.3701; stroke-opacity:1; 
stroke-linecap:round; stroke-linejoin:round;">
</g>
<g style="fill:#000000; fill-opacity:0.0; 
stroke:#000000; stroke-width:59.0551; stroke-opacity:1; 
stroke-linecap:round; stroke-linejoin:round;">
<path d="M3937 43307
L4724 43307
" />
</g>
<g style="fill:#000000; fill-opacity:0.0; 
stroke:#000000; stroke-width:39.3701; stroke-opacity:1; 
stroke-linecap:round; stroke-linejoin:round;">
</g>
<g style="fill:#000000; fill-opacity:0.0; 
stroke:#000000; stroke-width:59.0551; stroke-opacity:1; 
stroke-linecap:round; stroke-linejoin:round;">
<path d="M3937 62992
L4724 62992
" />
</g>
<g style="fill:#000000; fill-opacity:0.0; 
stroke:#000000; stroke-width:39.3701; stroke-opacity:1; 
stroke-linecap:round; stroke-linejoin:round;">
</g>
<g style="fill:#000000; fill-opacity:0.0; 
stroke:#000000; stroke-width:59.0551; stroke-opacity:1; 
stroke-linecap:round; stroke-linejoin:round;">
<path d="M4208 13864
L4452 13864
" />
<path d="M4160 14011
L4330 13499
L4501 14011
" />
</g>
<g style="fill:#000000; fill-opacity:0.0; 
stroke:#000000; stroke-width:39.3701; stroke-opacity:1; 
stroke-linecap:round; stroke-linejoin:round;">
</g>
<g style="fill:#000000; fill-opacity:0.0; 
stroke:#000000; stroke-width:59.0551; stroke-opacity:1; 
stroke-linecap:round; stroke-linejoin:round;">
<path d="M4367 33428
L4440 33452
L4464 33476
L4489 33525
L4489 33598
L4464 33647
L4440 33671
L4391 33696
L4196 33696
L4196 33184
L4367 33184
L4416 33208
L4440 33233
L4464 33281
L4464 33330
L4440 33379
L4416 33403
L4367 33428
L4196 33428
" />
</g>
<g style="fill:#000000; fill-opacity:0.0; 
stroke:#000000; stroke-width:39.3701; stroke-opacity:1; 
stroke-linecap:round; stroke-linejoin:round;">
</g>
<g style="fill:#000000; fill-opacity:0.0; 
stroke:#000000; stroke-width:59.0551; stroke-opacity:1; 
stroke-linecap:round; stroke-linejoin:round;">
<path d="M4489 53332
L4464 53356
L4391 53381
L4342 53381
L4269 53356
L4221 53308
L4196 53259
L4172 53161
L4172 53088
L4196 52991
L4221 52942
L4269 52893
L4342 52869
L4391 52869
L4464 52893
L4489 52918
" />
</g>
<g style="fill:#000000; fill-opacity:0.0; 
stroke:#000000; stroke-width:39.3701; stroke-opacity:1; 
stroke-linecap:round; stroke-linejoin:round;">
</g>
<g style="fill:#000000; fill-opacity:0.0; 
stroke:#000000; stroke-width:59.0551; stroke-opacity:1; 
stroke-linecap:round; stroke-linejoin:round;">
<path d="M4196 73066
L4196 72554
L4318 72554
L4391 72578
L4440 72627
L4464 72676
L4489 72773
L4489 72846
L4464 72944
L4440 72993
L4391 73041
L4318 73066
L4196 73066
" />
</g>
<g style="fill:#000000; fill-opacity:0.0; 
stroke:#000000; stroke-width:39.3701; stroke-opacity:1; 
stroke-linecap:round; stroke-linejoin:round;">
</g>
<g style="fill:#000000; fill-opacity:0.0; 
stroke:#000000; stroke-width:59.0551; stroke-opacity:1; 
stroke-linecap:round; stroke-linejoin:round;">
<path d="M112992 23622
L112205 23622
" />
</g>
<g style="fill:#000000; fill-opacity:0.0; 
stroke:#000000; stroke-width:39.3701; stroke-opacity:1; 
stroke-linecap:round; stroke-linejoin:round;">
</g>
<g style="fill:#000000; fill-opacity:0.0; 
stroke:#000000; stroke-width:59.0551; stroke-opacity:1; 
stroke-linecap:round; stroke-linejoin:round;">
<path d="M112992 43307
L112205 43307
" />
</g>
<g style="fill:#000000; fill-opacity:0.0; 
stroke:#000000; stroke-width:39.3701; stroke-opacity:1; 
stroke-linecap:round; stroke-linejoin:round;">
</g>
<g style="fill:#000000; fill-opacity:0.0; 
stroke:#000000; stroke-width:59.0551; stroke-opacity:1; 
stroke-linecap:round; stroke-linejoin:round;">
<path d="M112992 62992
L112205 62992
" />
</g>
<g style="fill:#000000; fill-opacity:0.0; 
stroke:#000000; stroke-width:39.3701; stroke-opacity:1; 
stroke-linecap:round; stroke-linejoin:round;">
</g>
<g style="fill:#000000; fill-opacity:0.0; 
stroke:#000000; stroke-width:59.0551; stroke-opacity:1; 
stroke-linecap:round; stroke-linejoin:round;">
<path d="M112477 13864
L112721 13864
" />
<path d="M112428 14011
L112599 13499
L112769 14011
" />
</g>
<g style="fill:#000000; fill-opacity:0.0; 
stroke:#000000; stroke-width:39.3701; stroke-opacity:1; 
stroke-linecap:round; stroke-linejoin:round;">
</g>
<g style="fill:#000000; fill-opacity:0.0; 
stroke:#000000; stroke-width:59.0551; stroke-opacity:1; 
stroke-linecap:round; stroke-linejoin:round;">
<path d="M112635 33428
L112708 33452
L112733 33476
L112757 33525
L112757 33598
L112733 33647
L112708 33671
L112660 33696
L112465 33696
L112465 33184
L112635 33184
L112684 33208
L112708 33233
L112733 33281
L112733 33330
L112708 33379
L112684 33403
L112635 33428
L112465 33428
" />
</g>
<g style="fill:#000000; fill-opacity:0.0; 
stroke:#000000; stroke-width:39.3701; stroke-opacity:1; 
stroke-linecap:round; stroke-linejoin:round;">
</g>
<g style="fill:#000000; fill-opacity:0.0; 
stroke:#000000; stroke-width:59.0551; stroke-opacity:1; 
stroke-linecap:round; stroke-linejoin:round;">
<path d="M112757 53332
L112733 53356
L112660 53381
L112611 53381
L112538 53356
L112489 53308
L112465 53259
L112440 53161
L112440 53088
L112465 52991
L112489 52942
L112538 52893
L112611 52869
L112660 52869
L112733 52893
L112757 52918
" />
</g>
<g style="fill:#000000; fill-opacity:0.0; 
stroke:#000000; stroke-width:39.3701; stroke-opacity:1; 
stroke-linecap:round; stroke-linejoin:round;">
</g>
<g style="fill:#000000; fill-opacity:0.0; 
stroke:#000000; stroke-width:59.0551; stroke-opacity:1; 
stroke-linecap:round; stroke-linejoin:round;">
<path d="M112465 73066
L112465 72554
L112587 72554
L112660 72578
L112708 72627
L112733 72676
L112757 72773
L112757 72846
L112733 72944
L112708 72993
L112660 73041
L112587 73066
L112465 73066
" />
</g>
<g style="fill:#000000; fill-opacity:0.0; 
stroke:#000000; stroke-width:39.3701; stroke-opacity:1; 
stroke-linecap:round; stroke-linejoin:round;">
</g>
<g style="fill:#000000; fill-opacity:0.0; 
stroke:#000000; stroke-width:59.0551; stroke-opacity:1; 
stroke-linecap:round; stroke-linejoin:round;">
<path d="M78911 76293
L78911 75703
L79051 75703
L79136 75731
L79192 75787
L79220 75843
L79248 75956
L79248 76040
L79220 76153
L79192 76209
L79136 76265
L79051 76293
L78911 76293
" />
<path d="M79754 76293
L79754 75984
L79726 75928
L79670 75899
L79557 75899
L79501 75928
" />
<path d="M79754 76265
L79698 76293
L79557 76293
L79501 76265
L79473 76209
L79473 76153
L79501 76096
L79557 76068
L79698 76068
L79754 76040
" />
<path d="M79951 75899
L80176 75899
" />
<path d="M80036 75703
L80036 76209
L80064 76265
L80120 76293
L80176 76293
" />
<path d="M80598 76265
L80542 76293
L80429 76293
L80373 76265
L80345 76209
L80345 75984
L80373 75928
L80429 75899
L80542 75899
L80598 75928
L80626 75984
L80626 76040
L80345 76096
" />
<path d="M80879 76237
L80907 76265
L80879 76293
L80851 76265
L80879 76237
L80879 76293
" />
<path d="M80879 75928
L80907 75956
L80879 75984
L80851 75956
L80879 75928
L80879 75984
" />
</g>
<g style="fill:#000000; fill-opacity:0.0; 
stroke:#000000; stroke-width:39.3701; stroke-opacity:1; 
stroke-linecap:round; stroke-linejoin:round;">
</g>
<g style="fill:#000000; fill-opacity:0.0; 
stroke:#000000; stroke-width:59.0551; stroke-opacity:1; 
stroke-linecap:round; stroke-linejoin:round;">
<path d="M69685 76577
L112205 76577
" />
</g>
<g style="fill:#000000; fill-opacity:0.0; 
stroke:#000000; stroke-width:39.3701; stroke-opacity:1; 
stroke-linecap:round; stroke-linejoin:round;">
</g>
<g style="fill:#000000; fill-opacity:0.0; 
stroke:#000000; stroke-width:59.0551; stroke-opacity:1; 
stroke-linecap:round; stroke-linejoin:round;">
<path d="M70249 77395
L70249 76805
" />
<path d="M70587 77395
L70334 77058
" />
<path d="M70587 76805
L70249 77142
" />
<path d="M70840 77395
L70840 77002
" />
<path d="M70840 76805
L70812 76833
L70840 76861
L70868 76833
L70840 76805
L70840 76861
" />
<path d="M71458 77339
L71430 77367
L71346 77395
L71290 77395
L71205 77367
L71149 77311
L71121 77255
L71093 77142
L71093 77058
L71121 76946
L71149 76889
L71205 76833
L71290 76805
L71346 76805
L71430 76833
L71458 76861
" />
<path d="M71965 77395
L71965 77086
L71937 77030
L71880 77002
L71768 77002
L71712 77030
" />
<path d="M71965 77367
L71908 77395
L71768 77395
L71712 77367
L71683 77311
L71683 77255
L71712 77199
L71768 77171
L71908 77171
L71965 77142
" />
<path d="M72499 77395
L72499 76805
" />
<path d="M72499 77367
L72443 77395
L72330 77395
L72274 77367
L72246 77339
L72218 77283
L72218 77114
L72246 77058
L72274 77030
L72330 77002
L72443 77002
L72499 77030
" />
<path d="M73230 77086
L73427 77086
" />
<path d="M73511 77395
L73230 77395
L73230 76805
L73511 76805
" />
<path d="M73764 77339
L73793 77367
L73764 77395
L73736 77367
L73764 77339
L73764 77395
" />
<path d="M74046 77395
L74046 76805
L74186 76805
L74271 76833
L74327 76889
L74355 76946
L74383 77058
L74383 77142
L74355 77255
L74327 77311
L74271 77367
L74186 77395
L74046 77395
" />
<path d="M74636 77339
L74664 77367
L74636 77395
L74608 77367
L74636 77339
L74636 77395
" />
<path d="M74889 77227
L75171 77227
" />
<path d="M74833 77395
L75030 76805
L75227 77395
" />
<path d="M75424 77339
L75452 77367
L75424 77395
L75395 77367
L75424 77339
L75424 77395
" />
<path d="M76605 77395
L76605 76805
" />
<path d="M76661 77171
L76830 77395
" />
<path d="M76830 77002
L76605 77227
" />
<path d="M77083 77395
L77083 77002
" />
<path d="M77083 76805
L77055 76833
L77083 76861
L77111 76833
L77083 76805
L77083 76861
" />
<path d="M77617 77367
L77561 77395
L77448 77395
L77392 77367
L77364 77339
L77336 77283
L77336 77114
L77364 77058
L77392 77030
L77448 77002
L77561 77002
L77617 77030
" />
<path d="M78123 77395
L78123 77086
L78095 77030
L78039 77002
L77926 77002
L77870 77030
" />
<path d="M78123 77367
L78067 77395
L77926 77395
L77870 77367
L77842 77311
L77842 77255
L77870 77199
L77926 77171
L78067 77171
L78123 77142
" />
<path d="M78658 77395
L78658 76805
" />
<path d="M78658 77367
L78601 77395
L78489 77395
L78433 77367
L78404 77339
L78376 77283
L78376 77114
L78404 77058
L78433 77030
L78489 77002
L78601 77002
L78658 77030
" />
<path d="M79670 76805
L79389 76805
L79361 77086
L79389 77058
L79445 77030
L79586 77030
L79642 77058
L79670 77086
L79698 77142
L79698 77283
L79670 77339
L79642 77367
L79586 77395
L79445 77395
L79389 77367
L79361 77339
" />
<path d="M79951 77339
L79979 77367
L79951 77395
L79923 77367
L79951 77339
L79951 77395
" />
<path d="M80542 77395
L80204 77395
" />
<path d="M80373 77395
L80373 76805
L80317 76889
L80260 76946
L80204 76974
" />
<path d="M80795 77339
L80823 77367
L80795 77395
L80767 77367
L80795 77339
L80795 77395
" />
<path d="M81329 77002
L81329 77395
" />
<path d="M81188 76777
L81048 77199
L81413 77199
" />
</g>
<g style="fill:#000000; fill-opacity:0.0; 
stroke:#000000; stroke-width:39.3701; stroke-opacity:1; 
stroke-linecap:round; stroke-linejoin:round;">
</g>
<g style="fill:#000000; fill-opacity:0.0; 
stroke:#000000; stroke-width:59.0551; stroke-opacity:1; 
stroke-linecap:round; stroke-linejoin:round;">
<path d="M69685 75396
L112205 75396
" />
</g>
<g style="fill:#000000; fill-opacity:0.0; 
stroke:#000000; stroke-width:39.3701; stroke-opacity:1; 
stroke-linecap:round; stroke-linejoin:round;">
</g>
<g style="fill:#000000; fill-opacity:0.0; 
stroke:#000000; stroke-width:118.11; stroke-opacity:1; 
stroke-linecap:round; stroke-linejoin:round;">
<path d="M104099 76293
L103902 76012
" />
<path d="M103761 76293
L103761 75703
L103986 75703
L104042 75731
L104070 75759
L104099 75815
L104099 75899
L104070 75956
L104042 75984
L103986 76012
L103761 76012
" />
<path d="M104577 76265
L104520 76293
L104408 76293
L104352 76265
L104323 76209
L104323 75984
L104352 75928
L104408 75899
L104520 75899
L104577 75928
L104605 75984
L104605 76040
L104323 76096
" />
<path d="M104802 75899
L104942 76293
L105083 75899
" />
<path d="M105308 76237
L105336 76265
L105308 76293
L105280 76265
L105308 76237
L105308 76293
" />
<path d="M105308 75928
L105336 75956
L105308 75984
L105280 75956
L105308 75928
L105308 75984
" />
</g>
<g style="fill:#000000; fill-opacity:0.0; 
stroke:#000000; stroke-width:39.3701; stroke-opacity:1; 
stroke-linecap:round; stroke-linejoin:round;">
</g>
<g style="fill:#000000; fill-opacity:0.0; 
stroke:#000000; stroke-width:59.0551; stroke-opacity:1; 
stroke-linecap:round; stroke-linejoin:round;">
<path d="M70221 76265
L70305 76293
L70446 76293
L70502 76265
L70530 76237
L70559 76181
L70559 76124
L70530 76068
L70502 76040
L70446 76012
L70334 75984
L70277 75956
L70249 75928
L70221 75871
L70221 75815
L70249 75759
L70277 75731
L70334 75703
L70474 75703
L70559 75731
" />
<path d="M70812 76293
L70812 75899
" />
<path d="M70812 75703
L70784 75731
L70812 75759
L70840 75731
L70812 75703
L70812 75759
" />
<path d="M71037 75899
L71346 75899
L71037 76293
L71346 76293
" />
<path d="M71796 76265
L71740 76293
L71627 76293
L71571 76265
L71543 76209
L71543 75984
L71571 75928
L71627 75899
L71740 75899
L71796 75928
L71824 75984
L71824 76040
L71543 76096
" />
<path d="M72077 76237
L72105 76265
L72077 76293
L72049 76265
L72077 76237
L72077 76293
" />
<path d="M72077 75928
L72105 75956
L72077 75984
L72049 75956
L72077 75928
L72077 75984
" />
<path d="M72780 76124
L73061 76124
" />
<path d="M72724 76293
L72921 75703
L73118 76293
" />
<path d="M73568 75899
L73568 76293
" />
<path d="M73427 75674
L73286 76096
L73652 76096
" />
</g>
<g style="fill:#000000; fill-opacity:0.0; 
stroke:#000000; stroke-width:39.3701; stroke-opacity:1; 
stroke-linecap:round; stroke-linejoin:round;">
</g>
<g style="fill:#000000; fill-opacity:0.0; 
stroke:#000000; stroke-width:59.0551; stroke-opacity:1; 
stroke-linecap:round; stroke-linejoin:round;">
<path d="M103714 77395
L103714 76805
" />
<path d="M104248 77395
L104248 76805
" />
<path d="M104248 77367
L104192 77395
L104079 77395
L104023 77367
L103995 77339
L103967 77283
L103967 77114
L103995 77058
L104023 77030
L104079 77002
L104192 77002
L104248 77030
" />
<path d="M104529 77339
L104557 77367
L104529 77395
L104501 77367
L104529 77339
L104529 77395
" />
<path d="M104529 77030
L104557 77058
L104529 77086
L104501 77058
L104529 77030
L104529 77086
" />
<path d="M105570 77395
L105232 77395
" />
<path d="M105401 77395
L105401 76805
L105345 76889
L105289 76946
L105232 76974
" />
<path d="M106245 76777
L105739 77536
" />
<path d="M106751 77395
L106413 77395
" />
<path d="M106582 77395
L106582 76805
L106526 76889
L106470 76946
L106413 76974
" />
</g>
<g style="fill:#000000; fill-opacity:0.0; 
stroke:#000000; stroke-width:39.3701; stroke-opacity:1; 
stroke-linecap:round; stroke-linejoin:round;">
</g>
<g style="fill:#000000; fill-opacity:0.0; 
stroke:#000000; stroke-width:59.0551; stroke-opacity:1; 
stroke-linecap:round; stroke-linejoin:round;">
<path d="M69685 73821
L112205 73821
" />
</g>
<g style="fill:#000000; fill-opacity:0.0; 
stroke:#000000; stroke-width:39.3701; stroke-opacity:1; 
stroke-linecap:round; stroke-linejoin:round;">
</g>
<g style="fill:#000000; fill-opacity:0.0; 
stroke:#000000; stroke-width:157.48; stroke-opacity:1; 
stroke-linecap:round; stroke-linejoin:round;">
<path d="M70360 74099
L70810 74099
" />
<path d="M70486 74886
L70585 74099
" />
<path d="M70974 74886
L71039 74361
" />
<path d="M71072 74099
L71030 74136
L71063 74174
L71105 74136
L71072 74099
L71063 74174
" />
<path d="M71302 74361
L71602 74361
" />
<path d="M71447 74099
L71363 74774
L71391 74849
L71461 74886
L71536 74886
" />
<path d="M71911 74886
L71841 74849
L71813 74774
L71897 74099
" />
<path d="M72516 74849
L72436 74886
L72286 74886
L72216 74849
L72187 74774
L72225 74474
L72272 74399
L72352 74361
L72501 74361
L72572 74399
L72600 74474
L72591 74549
L72206 74624
" />
<path d="M72895 74811
L72928 74849
L72886 74886
L72853 74849
L72895 74811
L72886 74886
" />
<path d="M72947 74399
L72980 74436
L72937 74474
L72905 74436
L72947 74399
L72937 74474
" />
</g>
<g style="fill:#000000; fill-opacity:0.0; 
stroke:#000000; stroke-width:39.3701; stroke-opacity:1; 
stroke-linecap:round; stroke-linejoin:round;">
</g>
<g style="fill:#000000; fill-opacity:0.0; 
stroke:#000000; stroke-width:59.0551; stroke-opacity:1; 
stroke-linecap:round; stroke-linejoin:round;">
<path d="M70446 73070
L70249 73070
" />
<path d="M70249 73380
L70249 72789
L70530 72789
" />
<path d="M70755 73380
L70755 72986
" />
<path d="M70755 72789
L70727 72817
L70755 72845
L70784 72817
L70755 72789
L70755 72845
" />
<path d="M71121 73380
L71065 73352
L71037 73295
L71037 72789
" />
<path d="M71571 73352
L71515 73380
L71402 73380
L71346 73352
L71318 73295
L71318 73070
L71346 73014
L71402 72986
L71515 72986
L71571 73014
L71599 73070
L71599 73127
L71318 73183
" />
<path d="M71852 73323
L71880 73352
L71852 73380
L71824 73352
L71852 73323
L71852 73380
" />
<path d="M71852 73014
L71880 73042
L71852 73070
L71824 73042
L71852 73014
L71852 73070
" />
<path d="M72527 72986
L72668 73380
L72808 72986
" />
<path d="M73258 73352
L73202 73380
L73090 73380
L73033 73352
L73005 73295
L73005 73070
L73033 73014
L73090 72986
L73202 72986
L73258 73014
L73286 73070
L73286 73127
L73005 73183
" />
<path d="M73539 73380
L73539 72986
" />
<path d="M73539 73099
L73568 73042
L73596 73014
L73652 72986
L73708 72986
" />
<path d="M73905 73380
L73905 72986
" />
<path d="M73905 72789
L73877 72817
L73905 72845
L73933 72817
L73905 72789
L73905 72845
" />
<path d="M74271 73380
L74214 73352
L74186 73295
L74186 72789
" />
<path d="M74580 73380
L74524 73352
L74496 73323
L74467 73267
L74467 73099
L74496 73042
L74524 73014
L74580 72986
L74664 72986
L74721 73014
L74749 73042
L74777 73099
L74777 73267
L74749 73323
L74721 73352
L74664 73380
L74580 73380
" />
<path d="M75283 72986
L75283 73464
L75255 73520
L75227 73548
L75171 73577
L75086 73577
L75030 73548
" />
<path d="M75283 73352
L75227 73380
L75114 73380
L75058 73352
L75030 73323
L75002 73267
L75002 73099
L75030 73042
L75058 73014
L75114 72986
L75227 72986
L75283 73014
" />
<path d="M75564 73155
L76014 73155
" />
<path d="M76548 73380
L76548 73070
L76520 73014
L76464 72986
L76352 72986
L76295 73014
" />
<path d="M76548 73352
L76492 73380
L76352 73380
L76295 73352
L76267 73295
L76267 73239
L76295 73183
L76352 73155
L76492 73155
L76548 73127
" />
<path d="M76914 73380
L76858 73352
L76830 73295
L76830 72789
" />
<path d="M77392 72986
L77392 73380
" />
<path d="M77139 72986
L77139 73295
L77167 73352
L77223 73380
L77308 73380
L77364 73352
L77392 73323
" />
<path d="M77673 73155
L78123 73155
" />
<path d="M78404 73380
L78404 72789
" />
<path d="M78461 73155
L78629 73380
" />
<path d="M78629 72986
L78404 73211
" />
<path d="M78883 73380
L78883 72986
" />
<path d="M78883 72789
L78854 72817
L78883 72845
L78911 72817
L78883 72789
L78883 72845
" />
<path d="M79417 73352
L79361 73380
L79248 73380
L79192 73352
L79164 73323
L79136 73267
L79136 73099
L79164 73042
L79192 73014
L79248 72986
L79361 72986
L79417 73014
" />
<path d="M79923 73380
L79923 73070
L79895 73014
L79839 72986
L79726 72986
L79670 73014
" />
<path d="M79923 73352
L79867 73380
L79726 73380
L79670 73352
L79642 73295
L79642 73239
L79670 73183
L79726 73155
L79867 73155
L79923 73127
" />
<path d="M80457 73380
L80457 72789
" />
<path d="M80457 73352
L80401 73380
L80289 73380
L80232 73352
L80204 73323
L80176 73267
L80176 73099
L80204 73042
L80232 73014
L80289 72986
L80401 72986
L80457 73014
" />
<path d="M80739 73323
L80767 73352
L80739 73380
L80710 73352
L80739 73323
L80739 73380
" />
<path d="M81020 73380
L81020 72789
" />
<path d="M81076 73155
L81245 73380
" />
<path d="M81245 72986
L81020 73211
" />
<path d="M81498 73380
L81498 72986
" />
<path d="M81498 72789
L81470 72817
L81498 72845
L81526 72817
L81498 72789
L81498 72845
" />
<path d="M82032 73352
L81976 73380
L81863 73380
L81807 73352
L81779 73323
L81751 73267
L81751 73099
L81779 73042
L81807 73014
L81863 72986
L81976 72986
L82032 73014
" />
<path d="M82538 73380
L82538 73070
L82510 73014
L82454 72986
L82341 72986
L82285 73014
" />
<path d="M82538 73352
L82482 73380
L82341 73380
L82285 73352
L82257 73295
L82257 73239
L82285 73183
L82341 73155
L82482 73155
L82538 73127
" />
<path d="M83073 73380
L83073 72789
" />
<path d="M83073 73352
L83016 73380
L82904 73380
L82848 73352
L82820 73323
L82791 73267
L82791 73099
L82820 73042
L82848 73014
L82904 72986
L83016 72986
L83073 73014
" />
<path d="M83213 73436
L83663 73436
" />
<path d="M83804 72986
L83804 73577
" />
<path d="M83804 73014
L83860 72986
L83973 72986
L84029 73014
L84057 73042
L84085 73099
L84085 73267
L84057 73323
L84029 73352
L83973 73380
L83860 73380
L83804 73352
" />
<path d="M84591 73352
L84535 73380
L84422 73380
L84366 73352
L84338 73323
L84310 73267
L84310 73099
L84338 73042
L84366 73014
L84422 72986
L84535 72986
L84591 73014
" />
<path d="M84844 73380
L84844 72789
" />
<path d="M84844 73014
L84901 72986
L85013 72986
L85069 73014
L85097 73042
L85126 73099
L85126 73267
L85097 73323
L85069 73352
L85013 73380
L84901 73380
L84844 73352
" />
</g>
<g style="fill:#000000; fill-opacity:0.0; 
stroke:#000000; stroke-width:39.3701; stroke-opacity:1; 
stroke-linecap:round; stroke-linejoin:round;">
</g>
<g style="fill:#000000; fill-opacity:0.0; 
stroke:#000000; stroke-width:59.0551; stroke-opacity:1; 
stroke-linecap:round; stroke-linejoin:round;">
<path d="M69685 71459
L112205 71459
" />
</g>
<g style="fill:#000000; fill-opacity:0.0; 
stroke:#000000; stroke-width:39.3701; stroke-opacity:1; 
stroke-linecap:round; stroke-linejoin:round;">
</g>
<g style="fill:#000000; fill-opacity:0.0; 
stroke:#000000; stroke-width:59.0551; stroke-opacity:1; 
stroke-linecap:round; stroke-linejoin:round;">
<path d="M70221 72289
L70305 72317
L70446 72317
L70502 72289
L70530 72260
L70559 72204
L70559 72148
L70530 72092
L70502 72064
L70446 72036
L70334 72007
L70277 71979
L70249 71951
L70221 71895
L70221 71839
L70249 71782
L70277 71754
L70334 71726
L70474 71726
L70559 71754
" />
<path d="M70812 72317
L70812 71726
" />
<path d="M71065 72317
L71065 72007
L71037 71951
L70980 71923
L70896 71923
L70840 71951
L70812 71979
" />
<path d="M71571 72289
L71515 72317
L71402 72317
L71346 72289
L71318 72232
L71318 72007
L71346 71951
L71402 71923
L71515 71923
L71571 71951
L71599 72007
L71599 72064
L71318 72120
" />
<path d="M72077 72289
L72021 72317
L71908 72317
L71852 72289
L71824 72232
L71824 72007
L71852 71951
L71908 71923
L72021 71923
L72077 71951
L72105 72007
L72105 72064
L71824 72120
" />
<path d="M72274 71923
L72499 71923
" />
<path d="M72358 71726
L72358 72232
L72386 72289
L72443 72317
L72499 72317
" />
<path d="M72696 72260
L72724 72289
L72696 72317
L72668 72289
L72696 72260
L72696 72317
" />
<path d="M72696 71951
L72724 71979
L72696 72007
L72668 71979
L72696 71951
L72696 72007
" />
</g>
<g style="fill:#000000; fill-opacity:0.0; 
stroke:#000000; stroke-width:39.3701; stroke-opacity:1; 
stroke-linecap:round; stroke-linejoin:round;">
</g>
<g style="fill:#000000; fill-opacity:0.0; 
stroke:#000000; stroke-width:59.0551; stroke-opacity:1; 
stroke-linecap:round; stroke-linejoin:round;">
<path d="M77559 75396
L77559 76577
" />
</g>
<g style="fill:#000000; fill-opacity:0.0; 
stroke:#000000; stroke-width:39.3701; stroke-opacity:1; 
stroke-linecap:round; stroke-linejoin:round;">
</g>
<g style="fill:#000000; fill-opacity:0.0; 
stroke:#000000; stroke-width:59.0551; stroke-opacity:1; 
stroke-linecap:round; stroke-linejoin:round;">
<path d="M102756 75396
L102756 77955
" />
</g>
<g style="fill:#840084; fill-opacity:0.0; 
stroke:#840084; stroke-width:59.0551; stroke-opacity:1; 
stroke-linecap:round; stroke-linejoin:round;">
</g>
<g style="fill:#840084; fill-opacity:1.0; 
stroke:#840084; stroke-width:0; stroke-opacity:1; 
stroke-linecap:round; stroke-linejoin:round;">
<path style="fill:#840084; fill-opacity:1.0; 
stroke:#840084; stroke-width:0; stroke-opacity:1; 
stroke-linecap:round; stroke-linejoin:round;fill-rule:evenodd;"
d="M 22543,-264352
22569,-264349
22636,-264329
22698,-264296
22712,-264284
22752,-264252
22784,-264212
22796,-264198
22829,-264136
22849,-264069
22856,-264000
22849,-263930
22829,-263863
22796,-263801
22791,-263795
22752,-263747
22713,-263716
22698,-263703
22636,-263670
22569,-263650
22543,-263647
22517,-263645
22482,-263645
22456,-263647
22430,-263650
22363,-263670
22301,-263703
22286,-263716
22247,-263747
22208,-263795
22203,-263801
22170,-263863
22150,-263930
22143,-264000
22150,-264069
22170,-264136
22203,-264198
22215,-264212
22247,-264252
22287,-264284
22301,-264296
22363,-264329
22430,-264349
22456,-264352
22482,-264354
22517,-264354
22543,-264352
Z" /> 
<path style="fill:#840084; fill-opacity:1.0; 
stroke:#840084; stroke-width:0; stroke-opacity:1; 
stroke-linecap:round; stroke-linejoin:round;fill-rule:evenodd;"
d="M 39593,-264307
39651,-264283
39704,-264248
39748,-264204
39783,-264151
39807,-264093
39820,-264031
39820,-263968
39807,-263906
39783,-263848
39748,-263795
39704,-263751
39651,-263716
39593,-263692
39531,-263679
39468,-263679
39406,-263692
39348,-263716
39295,-263751
39251,-263795
39216,-263848
39192,-263906
39179,-263968
39179,-264031
39192,-264093
39216,-264151
39251,-264204
39295,-264248
39348,-264283
39406,-264307
39468,-264320
39531,-264320
39593,-264307
Z" /> 
<path style="fill:#840084; fill-opacity:1.0; 
stroke:#840084; stroke-width:0; stroke-opacity:1; 
stroke-linecap:round; stroke-linejoin:round;fill-rule:evenodd;"
d="M 42593,-264307
42651,-264283
42704,-264248
42748,-264204
42783,-264151
42807,-264093
42820,-264031
42820,-263968
42807,-263906
42783,-263848
42748,-263795
42704,-263751
42651,-263716
42593,-263692
42531,-263679
42468,-263679
42406,-263692
42348,-263716
42295,-263751
42251,-263795
42216,-263848
42192,-263906
42179,-263968
42179,-264031
42192,-264093
42216,-264151
42251,-264204
42295,-264248
42348,-264283
42406,-264307
42468,-264320
42531,-264320
42593,-264307
Z" /> 
<path style="fill:#840084; fill-opacity:1.0; 
stroke:#840084; stroke-width:0; stroke-opacity:1; 
stroke-linecap:round; stroke-linejoin:round;fill-rule:evenodd;"
d="M 45593,-264307
45651,-264283
45704,-264248
45748,-264204
45783,-264151
45807,-264093
45820,-264031
45820,-263968
45807,-263906
45783,-263848
45748,-263795
45704,-263751
45651,-263716
45593,-263692
45531,-263679
45468,-263679
45406,-263692
45348,-263716
45295,-263751
45251,-263795
45216,-263848
45192,-263906
45179,-263968
45179,-264031
45192,-264093
45216,-264151
45251,-264204
45295,-264248
45348,-264283
45406,-264307
45468,-264320
45531,-264320
45593,-264307
Z" /> 
<path style="fill:#840084; fill-opacity:1.0; 
stroke:#840084; stroke-width:0; stroke-opacity:1; 
stroke-linecap:round; stroke-linejoin:round;fill-rule:evenodd;"
d="M 27593,-264307
27651,-264283
27704,-264248
27748,-264204
27783,-264151
27807,-264093
27820,-264031
27820,-263968
27807,-263906
27783,-263848
27748,-263795
27704,-263751
27651,-263716
27593,-263692
27531,-263679
27468,-263679
27406,-263692
27348,-263716
27295,-263751
27251,-263795
27216,-263848
27192,-263906
27179,-263968
27179,-264031
27192,-264093
27216,-264151
27251,-264204
27295,-264248
27348,-264283
27406,-264307
27468,-264320
27531,-264320
27593,-264307
Z" /> 
<path style="fill:#840084; fill-opacity:1.0; 
stroke:#840084; stroke-width:0; stroke-opacity:1; 
stroke-linecap:round; stroke-linejoin:round;fill-rule:evenodd;"
d="M 24593,-264307
24651,-264283
24704,-264248
24748,-264204
24783,-264151
24807,-264093
24820,-264031
24820,-263968
24807,-263906
24783,-263848
24748,-263795
24704,-263751
24651,-263716
24593,-263692
24531,-263679
24468,-263679
24406,-263692
24348,-263716
24295,-263751
24251,-263795
24216,-263848
24192,-263906
24179,-263968
24179,-264031
24192,-264093
24216,-264151
24251,-264204
24295,-264248
24348,-264283
24406,-264307
24468,-264320
24531,-264320
24593,-264307
Z" /> 
<path style="fill:#840084; fill-opacity:1.0; 
stroke:#840084; stroke-width:0; stroke-opacity:1; 
stroke-linecap:round; stroke-linejoin:round;fill-rule:evenodd;"
d="M 30593,-264307
30651,-264283
30704,-264248
30748,-264204
30783,-264151
30807,-264093
30820,-264031
30820,-263968
30807,-263906
30783,-263848
30748,-263795
30704,-263751
30651,-263716
30593,-263692
30531,-263679
30468,-263679
30406,-263692
30348,-263716
30295,-263751
30251,-263795
30216,-263848
30192,-263906
30179,-263968
30179,-264031
30192,-264093
30216,-264151
30251,-264204
30295,-264248
30348,-264283
30406,-264307
30468,-264320
30531,-264320
30593,-264307
Z" /> 
<path style="fill:#840084; fill-opacity:1.0; 
stroke:#840084; stroke-width:0; stroke-opacity:1; 
stroke-linecap:round; stroke-linejoin:round;fill-rule:evenodd;"
d="M 33593,-264307
33651,-264283
33704,-264248
33748,-264204
33783,-264151
33807,-264093
33820,-264031
33820,-263968
33807,-263906
33783,-263848
33748,-263795
33704,-263751
33651,-263716
33593,-263692
33531,-263679
33468,-263679
33406,-263692
33348,-263716
33295,-263751
33251,-263795
33216,-263848
33192,-263906
33179,-263968
33179,-264031
33192,-264093
33216,-264151
33251,-264204
33295,-264248
33348,-264283
33406,-264307
33468,-264320
33531,-264320
33593,-264307
Z" /> 
<path style="fill:#840084; fill-opacity:1.0; 
stroke:#840084; stroke-width:0; stroke-opacity:1; 
stroke-linecap:round; stroke-linejoin:round;fill-rule:evenodd;"
d="M 36593,-264307
36651,-264283
36704,-264248
36748,-264204
36783,-264151
36807,-264093
36820,-264031
36820,-263968
36807,-263906
36783,-263848
36748,-263795
36704,-263751
36651,-263716
36593,-263692
36531,-263679
36468,-263679
36406,-263692
36348,-263716
36295,-263751
36251,-263795
36216,-263848
36192,-263906
36179,-263968
36179,-264031
36192,-264093
36216,-264151
36251,-264204
36295,-264248
36348,-264283
36406,-264307
36468,-264320
36531,-264320
36593,-264307
Z" /> 
<path style="fill:#840084; fill-opacity:1.0; 
stroke:#840084; stroke-width:0; stroke-opacity:1; 
stroke-linecap:round; stroke-linejoin:round;fill-rule:evenodd;"
d="M 22854,-264645
22145,-264645
22145,-265354
22854,-265354
22854,-264645
Z" /> 
<path style="fill:#840084; fill-opacity:1.0; 
stroke:#840084; stroke-width:0; stroke-opacity:1; 
stroke-linecap:round; stroke-linejoin:round;fill-rule:evenodd;"
d="M 24593,-265307
24651,-265283
24704,-265248
24748,-265204
24783,-265151
24807,-265093
24820,-265031
24820,-264968
24807,-264906
24783,-264848
24748,-264795
24704,-264751
24651,-264716
24593,-264692
24531,-264679
24468,-264679
24406,-264692
24348,-264716
24295,-264751
24251,-264795
24216,-264848
24192,-264906
24179,-264968
24179,-265031
24192,-265093
24216,-265151
24251,-265204
24295,-265248
24348,-265283
24406,-265307
24468,-265320
24531,-265320
24593,-265307
Z" /> 
<path style="fill:#840084; fill-opacity:1.0; 
stroke:#840084; stroke-width:0; stroke-opacity:1; 
stroke-linecap:round; stroke-linejoin:round;fill-rule:evenodd;"
d="M 39593,-265307
39651,-265283
39704,-265248
39748,-265204
39783,-265151
39807,-265093
39820,-265031
39820,-264968
39807,-264906
39783,-264848
39748,-264795
39704,-264751
39651,-264716
39593,-264692
39531,-264679
39468,-264679
39406,-264692
39348,-264716
39295,-264751
39251,-264795
39216,-264848
39192,-264906
39179,-264968
39179,-265031
39192,-265093
39216,-265151
39251,-265204
39295,-265248
39348,-265283
39406,-265307
39468,-265320
39531,-265320
39593,-265307
Z" /> 
<path style="fill:#840084; fill-opacity:1.0; 
stroke:#840084; stroke-width:0; stroke-opacity:1; 
stroke-linecap:round; stroke-linejoin:round;fill-rule:evenodd;"
d="M 36593,-265307
36651,-265283
36704,-265248
36748,-265204
36783,-265151
36807,-265093
36820,-265031
36820,-264968
36807,-264906
36783,-264848
36748,-264795
36704,-264751
36651,-264716
36593,-264692
36531,-264679
36468,-264679
36406,-264692
36348,-264716
36295,-264751
36251,-264795
36216,-264848
36192,-264906
36179,-264968
36179,-265031
36192,-265093
36216,-265151
36251,-265204
36295,-265248
36348,-265283
36406,-265307
36468,-265320
36531,-265320
36593,-265307
Z" /> 
<path style="fill:#840084; fill-opacity:1.0; 
stroke:#840084; stroke-width:0; stroke-opacity:1; 
stroke-linecap:round; stroke-linejoin:round;fill-rule:evenodd;"
d="M 30593,-265307
30651,-265283
30704,-265248
30748,-265204
30783,-265151
30807,-265093
30820,-265031
30820,-264968
30807,-264906
30783,-264848
30748,-264795
30704,-264751
30651,-264716
30593,-264692
30531,-264679
30468,-264679
30406,-264692
30348,-264716
30295,-264751
30251,-264795
30216,-264848
30192,-264906
30179,-264968
30179,-265031
30192,-265093
30216,-265151
30251,-265204
30295,-265248
30348,-265283
30406,-265307
30468,-265320
30531,-265320
30593,-265307
Z" /> 
<path style="fill:#840084; fill-opacity:1.0; 
stroke:#840084; stroke-width:0; stroke-opacity:1; 
stroke-linecap:round; stroke-linejoin:round;fill-rule:evenodd;"
d="M 45593,-265307
45651,-265283
45704,-265248
45748,-265204
45783,-265151
45807,-265093
45820,-265031
45820,-264968
45807,-264906
45783,-264848
45748,-264795
45704,-264751
45651,-264716
45593,-264692
45531,-264679
45468,-264679
45406,-264692
45348,-264716
45295,-264751
45251,-264795
45216,-264848
45192,-264906
45179,-264968
45179,-265031
45192,-265093
45216,-265151
45251,-265204
45295,-265248
45348,-265283
45406,-265307
45468,-265320
45531,-265320
45593,-265307
Z" /> 
<path style="fill:#840084; fill-opacity:1.0; 
stroke:#840084; stroke-width:0; stroke-opacity:1; 
stroke-linecap:round; stroke-linejoin:round;fill-rule:evenodd;"
d="M 42593,-265307
42651,-265283
42704,-265248
42748,-265204
42783,-265151
42807,-265093
42820,-265031
42820,-264968
42807,-264906
42783,-264848
42748,-264795
42704,-264751
42651,-264716
42593,-264692
42531,-264679
42468,-264679
42406,-264692
42348,-264716
42295,-264751
42251,-264795
42216,-264848
42192,-264906
42179,-264968
42179,-265031
42192,-265093
42216,-265151
42251,-265204
42295,-265248
42348,-265283
42406,-265307
42468,-265320
42531,-265320
42593,-265307
Z" /> 
<path style="fill:#840084; fill-opacity:1.0; 
stroke:#840084; stroke-width:0; stroke-opacity:1; 
stroke-linecap:round; stroke-linejoin:round;fill-rule:evenodd;"
d="M 27593,-265307
27651,-265283
27704,-265248
27748,-265204
27783,-265151
27807,-265093
27820,-265031
27820,-264968
27807,-264906
27783,-264848
27748,-264795
27704,-264751
27651,-264716
27593,-264692
27531,-264679
27468,-264679
27406,-264692
27348,-264716
27295,-264751
27251,-264795
27216,-264848
27192,-264906
27179,-264968
27179,-265031
27192,-265093
27216,-265151
27251,-265204
27295,-265248
27348,-265283
27406,-265307
27468,-265320
27531,-265320
27593,-265307
Z" /> 
<path style="fill:#840084; fill-opacity:1.0; 
stroke:#840084; stroke-width:0; stroke-opacity:1; 
stroke-linecap:round; stroke-linejoin:round;fill-rule:evenodd;"
d="M 33593,-265307
33651,-265283
33704,-265248
33748,-265204
33783,-265151
33807,-265093
33820,-265031
33820,-264968
33807,-264906
33783,-264848
33748,-264795
33704,-264751
33651,-264716
33593,-264692
33531,-264679
33468,-264679
33406,-264692
33348,-264716
33295,-264751
33251,-264795
33216,-264848
33192,-264906
33179,-264968
33179,-265031
33192,-265093
33216,-265151
33251,-265204
33295,-265248
33348,-265283
33406,-265307
33468,-265320
33531,-265320
33593,-265307
Z" /> 
<path style="fill:#840084; fill-opacity:1.0; 
stroke:#840084; stroke-width:0; stroke-opacity:1; 
stroke-linecap:round; stroke-linejoin:round;fill-rule:evenodd;"
d="M 39593,-266307
39651,-266283
39704,-266248
39748,-266204
39783,-266151
39807,-266093
39820,-266031
39820,-265968
39807,-265906
39783,-265848
39748,-265795
39704,-265751
39651,-265716
39593,-265692
39531,-265679
39468,-265679
39406,-265692
39348,-265716
39295,-265751
39251,-265795
39216,-265848
39192,-265906
39179,-265968
39179,-266031
39192,-266093
39216,-266151
39251,-266204
39295,-266248
39348,-266283
39406,-266307
39468,-266320
39531,-266320
39593,-266307
Z" /> 
<path style="fill:#840084; fill-opacity:1.0; 
stroke:#840084; stroke-width:0; stroke-opacity:1; 
stroke-linecap:round; stroke-linejoin:round;fill-rule:evenodd;"
d="M 24593,-266307
24651,-266283
24704,-266248
24748,-266204
24783,-266151
24807,-266093
24820,-266031
24820,-265968
24807,-265906
24783,-265848
24748,-265795
24704,-265751
24651,-265716
24593,-265692
24531,-265679
24468,-265679
24406,-265692
24348,-265716
24295,-265751
24251,-265795
24216,-265848
24192,-265906
24179,-265968
24179,-266031
24192,-266093
24216,-266151
24251,-266204
24295,-266248
24348,-266283
24406,-266307
24468,-266320
24531,-266320
24593,-266307
Z" /> 
<path style="fill:#840084; fill-opacity:1.0; 
stroke:#840084; stroke-width:0; stroke-opacity:1; 
stroke-linecap:round; stroke-linejoin:round;fill-rule:evenodd;"
d="M 27593,-266307
27651,-266283
27704,-266248
27748,-266204
27783,-266151
27807,-266093
27820,-266031
27820,-265968
27807,-265906
27783,-265848
27748,-265795
27704,-265751
27651,-265716
27593,-265692
27531,-265679
27468,-265679
27406,-265692
27348,-265716
27295,-265751
27251,-265795
27216,-265848
27192,-265906
27179,-265968
27179,-266031
27192,-266093
27216,-266151
27251,-266204
27295,-266248
27348,-266283
27406,-266307
27468,-266320
27531,-266320
27593,-266307
Z" /> 
<path style="fill:#840084; fill-opacity:1.0; 
stroke:#840084; stroke-width:0; stroke-opacity:1; 
stroke-linecap:round; stroke-linejoin:round;fill-rule:evenodd;"
d="M 42593,-266307
42651,-266283
42704,-266248
42748,-266204
42783,-266151
42807,-266093
42820,-266031
42820,-265968
42807,-265906
42783,-265848
42748,-265795
42704,-265751
42651,-265716
42593,-265692
42531,-265679
42468,-265679
42406,-265692
42348,-265716
42295,-265751
42251,-265795
42216,-265848
42192,-265906
42179,-265968
42179,-266031
42192,-266093
42216,-266151
42251,-266204
42295,-266248
42348,-266283
42406,-266307
42468,-266320
42531,-266320
42593,-266307
Z" /> 
<path style="fill:#840084; fill-opacity:1.0; 
stroke:#840084; stroke-width:0; stroke-opacity:1; 
stroke-linecap:round; stroke-linejoin:round;fill-rule:evenodd;"
d="M 45593,-266307
45651,-266283
45704,-266248
45748,-266204
45783,-266151
45807,-266093
45820,-266031
45820,-265968
45807,-265906
45783,-265848
45748,-265795
45704,-265751
45651,-265716
45593,-265692
45531,-265679
45468,-265679
45406,-265692
45348,-265716
45295,-265751
45251,-265795
45216,-265848
45192,-265906
45179,-265968
45179,-266031
45192,-266093
45216,-266151
45251,-266204
45295,-266248
45348,-266283
45406,-266307
45468,-266320
45531,-266320
45593,-266307
Z" /> 
<path style="fill:#840084; fill-opacity:1.0; 
stroke:#840084; stroke-width:0; stroke-opacity:1; 
stroke-linecap:round; stroke-linejoin:round;fill-rule:evenodd;"
d="M 30593,-266307
30651,-266283
30704,-266248
30748,-266204
30783,-266151
30807,-266093
30820,-266031
30820,-265968
30807,-265906
30783,-265848
30748,-265795
30704,-265751
30651,-265716
30593,-265692
30531,-265679
30468,-265679
30406,-265692
30348,-265716
30295,-265751
30251,-265795
30216,-265848
30192,-265906
30179,-265968
30179,-266031
30192,-266093
30216,-266151
30251,-266204
30295,-266248
30348,-266283
30406,-266307
30468,-266320
30531,-266320
30593,-266307
Z" /> 
<path style="fill:#840084; fill-opacity:1.0; 
stroke:#840084; stroke-width:0; stroke-opacity:1; 
stroke-linecap:round; stroke-linejoin:round;fill-rule:evenodd;"
d="M 33593,-266307
33651,-266283
33704,-266248
33748,-266204
33783,-266151
33807,-266093
33820,-266031
33820,-265968
33807,-265906
33783,-265848
33748,-265795
33704,-265751
33651,-265716
33593,-265692
33531,-265679
33468,-265679
33406,-265692
33348,-265716
33295,-265751
33251,-265795
33216,-265848
33192,-265906
33179,-265968
33179,-266031
33192,-266093
33216,-266151
33251,-266204
33295,-266248
33348,-266283
33406,-266307
33468,-266320
33531,-266320
33593,-266307
Z" /> 
<path style="fill:#840084; fill-opacity:1.0; 
stroke:#840084; stroke-width:0; stroke-opacity:1; 
stroke-linecap:round; stroke-linejoin:round;fill-rule:evenodd;"
d="M 36593,-266307
36651,-266283
36704,-266248
36748,-266204
36783,-266151
36807,-266093
36820,-266031
36820,-265968
36807,-265906
36783,-265848
36748,-265795
36704,-265751
36651,-265716
36593,-265692
36531,-265679
36468,-265679
36406,-265692
36348,-265716
36295,-265751
36251,-265795
36216,-265848
36192,-265906
36179,-265968
36179,-266031
36192,-266093
36216,-266151
36251,-266204
36295,-266248
36348,-266283
36406,-266307
36468,-266320
36531,-266320
36593,-266307
Z" /> 
<path style="fill:#840084; fill-opacity:1.0; 
stroke:#840084; stroke-width:0; stroke-opacity:1; 
stroke-linecap:round; stroke-linejoin:round;fill-rule:evenodd;"
d="M 27593,-267307
27651,-267283
27704,-267248
27748,-267204
27783,-267151
27807,-267093
27820,-267031
27820,-266968
27807,-266906
27783,-266848
27748,-266795
27704,-266751
27651,-266716
27593,-266692
27531,-266679
27468,-266679
27406,-266692
27348,-266716
27295,-266751
27251,-266795
27216,-266848
27192,-266906
27179,-266968
27179,-267031
27192,-267093
27216,-267151
27251,-267204
27295,-267248
27348,-267283
27406,-267307
27468,-267320
27531,-267320
27593,-267307
Z" /> 
<path style="fill:#840084; fill-opacity:1.0; 
stroke:#840084; stroke-width:0; stroke-opacity:1; 
stroke-linecap:round; stroke-linejoin:round;fill-rule:evenodd;"
d="M 24593,-267307
24651,-267283
24704,-267248
24748,-267204
24783,-267151
24807,-267093
24820,-267031
24820,-266968
24807,-266906
24783,-266848
24748,-266795
24704,-266751
24651,-266716
24593,-266692
24531,-266679
24468,-266679
24406,-266692
24348,-266716
24295,-266751
24251,-266795
24216,-266848
24192,-266906
24179,-266968
24179,-267031
24192,-267093
24216,-267151
24251,-267204
24295,-267248
24348,-267283
24406,-267307
24468,-267320
24531,-267320
24593,-267307
Z" /> 
<path style="fill:#840084; fill-opacity:1.0; 
stroke:#840084; stroke-width:0; stroke-opacity:1; 
stroke-linecap:round; stroke-linejoin:round;fill-rule:evenodd;"
d="M 30593,-267307
30651,-267283
30704,-267248
30748,-267204
30783,-267151
30807,-267093
30820,-267031
30820,-266968
30807,-266906
30783,-266848
30748,-266795
30704,-266751
30651,-266716
30593,-266692
30531,-266679
30468,-266679
30406,-266692
30348,-266716
30295,-266751
30251,-266795
30216,-266848
30192,-266906
30179,-266968
30179,-267031
30192,-267093
30216,-267151
30251,-267204
30295,-267248
30348,-267283
30406,-267307
30468,-267320
30531,-267320
30593,-267307
Z" /> 
<path style="fill:#840084; fill-opacity:1.0; 
stroke:#840084; stroke-width:0; stroke-opacity:1; 
stroke-linecap:round; stroke-linejoin:round;fill-rule:evenodd;"
d="M 42593,-267307
42651,-267283
42704,-267248
42748,-267204
42783,-267151
42807,-267093
42820,-267031
42820,-266968
42807,-266906
42783,-266848
42748,-266795
42704,-266751
42651,-266716
42593,-266692
42531,-266679
42468,-266679
42406,-266692
42348,-266716
42295,-266751
42251,-266795
42216,-266848
42192,-266906
42179,-266968
42179,-267031
42192,-267093
42216,-267151
42251,-267204
42295,-267248
42348,-267283
42406,-267307
42468,-267320
42531,-267320
42593,-267307
Z" /> 
<path style="fill:#840084; fill-opacity:1.0; 
stroke:#840084; stroke-width:0; stroke-opacity:1; 
stroke-linecap:round; stroke-linejoin:round;fill-rule:evenodd;"
d="M 39593,-267307
39651,-267283
39704,-267248
39748,-267204
39783,-267151
39807,-267093
39820,-267031
39820,-266968
39807,-266906
39783,-266848
39748,-266795
39704,-266751
39651,-266716
39593,-266692
39531,-266679
39468,-266679
39406,-266692
39348,-266716
39295,-266751
39251,-266795
39216,-266848
39192,-266906
39179,-266968
39179,-267031
39192,-267093
39216,-267151
39251,-267204
39295,-267248
39348,-267283
39406,-267307
39468,-267320
39531,-267320
39593,-267307
Z" /> 
<path style="fill:#840084; fill-opacity:1.0; 
stroke:#840084; stroke-width:0; stroke-opacity:1; 
stroke-linecap:round; stroke-linejoin:round;fill-rule:evenodd;"
d="M 33593,-267307
33651,-267283
33704,-267248
33748,-267204
33783,-267151
33807,-267093
33820,-267031
33820,-266968
33807,-266906
33783,-266848
33748,-266795
33704,-266751
33651,-266716
33593,-266692
33531,-266679
33468,-266679
33406,-266692
33348,-266716
33295,-266751
33251,-266795
33216,-266848
33192,-266906
33179,-266968
33179,-267031
33192,-267093
33216,-267151
33251,-267204
33295,-267248
33348,-267283
33406,-267307
33468,-267320
33531,-267320
33593,-267307
Z" /> 
<path style="fill:#840084; fill-opacity:1.0; 
stroke:#840084; stroke-width:0; stroke-opacity:1; 
stroke-linecap:round; stroke-linejoin:round;fill-rule:evenodd;"
d="M 45593,-267307
45651,-267283
45704,-267248
45748,-267204
45783,-267151
45807,-267093
45820,-267031
45820,-266968
45807,-266906
45783,-266848
45748,-266795
45704,-266751
45651,-266716
45593,-266692
45531,-266679
45468,-266679
45406,-266692
45348,-266716
45295,-266751
45251,-266795
45216,-266848
45192,-266906
45179,-266968
45179,-267031
45192,-267093
45216,-267151
45251,-267204
45295,-267248
45348,-267283
45406,-267307
45468,-267320
45531,-267320
45593,-267307
Z" /> 
<path style="fill:#840084; fill-opacity:1.0; 
stroke:#840084; stroke-width:0; stroke-opacity:1; 
stroke-linecap:round; stroke-linejoin:round;fill-rule:evenodd;"
d="M 36593,-267307
36651,-267283
36704,-267248
36748,-267204
36783,-267151
36807,-267093
36820,-267031
36820,-266968
36807,-266906
36783,-266848
36748,-266795
36704,-266751
36651,-266716
36593,-266692
36531,-266679
36468,-266679
36406,-266692
36348,-266716
36295,-266751
36251,-266795
36216,-266848
36192,-266906
36179,-266968
36179,-267031
36192,-267093
36216,-267151
36251,-267204
36295,-267248
36348,-267283
36406,-267307
36468,-267320
36531,-267320
36593,-267307
Z" /> 
<path style="fill:#840084; fill-opacity:1.0; 
stroke:#840084; stroke-width:0; stroke-opacity:1; 
stroke-linecap:round; stroke-linejoin:round;fill-rule:evenodd;"
d="M 45593,-268307
45651,-268283
45704,-268248
45748,-268204
45783,-268151
45807,-268093
45820,-268031
45820,-267968
45807,-267906
45783,-267848
45748,-267795
45704,-267751
45651,-267716
45593,-267692
45531,-267679
45468,-267679
45406,-267692
45348,-267716
45295,-267751
45251,-267795
45216,-267848
45192,-267906
45179,-267968
45179,-268031
45192,-268093
45216,-268151
45251,-268204
45295,-268248
45348,-268283
45406,-268307
45468,-268320
45531,-268320
45593,-268307
Z" /> 
<path style="fill:#840084; fill-opacity:1.0; 
stroke:#840084; stroke-width:0; stroke-opacity:1; 
stroke-linecap:round; stroke-linejoin:round;fill-rule:evenodd;"
d="M 42593,-268307
42651,-268283
42704,-268248
42748,-268204
42783,-268151
42807,-268093
42820,-268031
42820,-267968
42807,-267906
42783,-267848
42748,-267795
42704,-267751
42651,-267716
42593,-267692
42531,-267679
42468,-267679
42406,-267692
42348,-267716
42295,-267751
42251,-267795
42216,-267848
42192,-267906
42179,-267968
42179,-268031
42192,-268093
42216,-268151
42251,-268204
42295,-268248
42348,-268283
42406,-268307
42468,-268320
42531,-268320
42593,-268307
Z" /> 
<path style="fill:#840084; fill-opacity:1.0; 
stroke:#840084; stroke-width:0; stroke-opacity:1; 
stroke-linecap:round; stroke-linejoin:round;fill-rule:evenodd;"
d="M 39593,-268307
39651,-268283
39704,-268248
39748,-268204
39783,-268151
39807,-268093
39820,-268031
39820,-267968
39807,-267906
39783,-267848
39748,-267795
39704,-267751
39651,-267716
39593,-267692
39531,-267679
39468,-267679
39406,-267692
39348,-267716
39295,-267751
39251,-267795
39216,-267848
39192,-267906
39179,-267968
39179,-268031
39192,-268093
39216,-268151
39251,-268204
39295,-268248
39348,-268283
39406,-268307
39468,-268320
39531,-268320
39593,-268307
Z" /> 
<path style="fill:#840084; fill-opacity:1.0; 
stroke:#840084; stroke-width:0; stroke-opacity:1; 
stroke-linecap:round; stroke-linejoin:round;fill-rule:evenodd;"
d="M 33593,-268307
33651,-268283
33704,-268248
33748,-268204
33783,-268151
33807,-268093
33820,-268031
33820,-267968
33807,-267906
33783,-267848
33748,-267795
33704,-267751
33651,-267716
33593,-267692
33531,-267679
33468,-267679
33406,-267692
33348,-267716
33295,-267751
33251,-267795
33216,-267848
33192,-267906
33179,-267968
33179,-268031
33192,-268093
33216,-268151
33251,-268204
33295,-268248
33348,-268283
33406,-268307
33468,-268320
33531,-268320
33593,-268307
Z" /> 
<path style="fill:#840084; fill-opacity:1.0; 
stroke:#840084; stroke-width:0; stroke-opacity:1; 
stroke-linecap:round; stroke-linejoin:round;fill-rule:evenodd;"
d="M 30593,-268307
30651,-268283
30704,-268248
30748,-268204
30783,-268151
30807,-268093
30820,-268031
30820,-267968
30807,-267906
30783,-267848
30748,-267795
30704,-267751
30651,-267716
30593,-267692
30531,-267679
30468,-267679
30406,-267692
30348,-267716
30295,-267751
30251,-267795
30216,-267848
30192,-267906
30179,-267968
30179,-268031
30192,-268093
30216,-268151
30251,-268204
30295,-268248
30348,-268283
30406,-268307
30468,-268320
30531,-268320
30593,-268307
Z" /> 
<path style="fill:#840084; fill-opacity:1.0; 
stroke:#840084; stroke-width:0; stroke-opacity:1; 
stroke-linecap:round; stroke-linejoin:round;fill-rule:evenodd;"
d="M 36593,-268307
36651,-268283
36704,-268248
36748,-268204
36783,-268151
36807,-268093
36820,-268031
36820,-267968
36807,-267906
36783,-267848
36748,-267795
36704,-267751
36651,-267716
36593,-267692
36531,-267679
36468,-267679
36406,-267692
36348,-267716
36295,-267751
36251,-267795
36216,-267848
36192,-267906
36179,-267968
36179,-268031
36192,-268093
36216,-268151
36251,-268204
36295,-268248
36348,-268283
36406,-268307
36468,-268320
36531,-268320
36593,-268307
Z" /> 
<path style="fill:#840084; fill-opacity:1.0; 
stroke:#840084; stroke-width:0; stroke-opacity:1; 
stroke-linecap:round; stroke-linejoin:round;fill-rule:evenodd;"
d="M 27593,-268307
27651,-268283
27704,-268248
27748,-268204
27783,-268151
27807,-268093
27820,-268031
27820,-267968
27807,-267906
27783,-267848
27748,-267795
27704,-267751
27651,-267716
27593,-267692
27531,-267679
27468,-267679
27406,-267692
27348,-267716
27295,-267751
27251,-267795
27216,-267848
27192,-267906
27179,-267968
27179,-268031
27192,-268093
27216,-268151
27251,-268204
27295,-268248
27348,-268283
27406,-268307
27468,-268320
27531,-268320
27593,-268307
Z" /> 
<path style="fill:#840084; fill-opacity:1.0; 
stroke:#840084; stroke-width:0; stroke-opacity:1; 
stroke-linecap:round; stroke-linejoin:round;fill-rule:evenodd;"
d="M 24593,-268307
24651,-268283
24704,-268248
24748,-268204
24783,-268151
24807,-268093
24820,-268031
24820,-267968
24807,-267906
24783,-267848
24748,-267795
24704,-267751
24651,-267716
24593,-267692
24531,-267679
24468,-267679
24406,-267692
24348,-267716
24295,-267751
24251,-267795
24216,-267848
24192,-267906
24179,-267968
24179,-268031
24192,-268093
24216,-268151
24251,-268204
24295,-268248
24348,-268283
24406,-268307
24468,-268320
24531,-268320
24593,-268307
Z" /> 
<path style="fill:#840084; fill-opacity:1.0; 
stroke:#840084; stroke-width:0; stroke-opacity:1; 
stroke-linecap:round; stroke-linejoin:round;fill-rule:evenodd;"
d="M 22543,-269352
22569,-269349
22636,-269329
22698,-269296
22712,-269284
22752,-269252
22784,-269212
22796,-269198
22829,-269136
22849,-269069
22856,-269000
22849,-268930
22829,-268863
22796,-268801
22791,-268795
22752,-268747
22713,-268716
22698,-268703
22636,-268670
22569,-268650
22543,-268647
22517,-268645
22482,-268645
22456,-268647
22430,-268650
22363,-268670
22301,-268703
22286,-268716
22247,-268747
22208,-268795
22203,-268801
22170,-268863
22150,-268930
22143,-269000
22150,-269069
22170,-269136
22203,-269198
22215,-269212
22247,-269252
22287,-269284
22301,-269296
22363,-269329
22430,-269349
22456,-269352
22482,-269354
22517,-269354
22543,-269352
Z" /> 
<path style="fill:#840084; fill-opacity:1.0; 
stroke:#840084; stroke-width:0; stroke-opacity:1; 
stroke-linecap:round; stroke-linejoin:round;fill-rule:evenodd;"
d="M 42593,-269307
42651,-269283
42704,-269248
42748,-269204
42783,-269151
42807,-269093
42820,-269031
42820,-268968
42807,-268906
42783,-268848
42748,-268795
42704,-268751
42651,-268716
42593,-268692
42531,-268679
42468,-268679
42406,-268692
42348,-268716
42295,-268751
42251,-268795
42216,-268848
42192,-268906
42179,-268968
42179,-269031
42192,-269093
42216,-269151
42251,-269204
42295,-269248
42348,-269283
42406,-269307
42468,-269320
42531,-269320
42593,-269307
Z" /> 
<path style="fill:#840084; fill-opacity:1.0; 
stroke:#840084; stroke-width:0; stroke-opacity:1; 
stroke-linecap:round; stroke-linejoin:round;fill-rule:evenodd;"
d="M 30593,-269307
30651,-269283
30704,-269248
30748,-269204
30783,-269151
30807,-269093
30820,-269031
30820,-268968
30807,-268906
30783,-268848
30748,-268795
30704,-268751
30651,-268716
30593,-268692
30531,-268679
30468,-268679
30406,-268692
30348,-268716
30295,-268751
30251,-268795
30216,-268848
30192,-268906
30179,-268968
30179,-269031
30192,-269093
30216,-269151
30251,-269204
30295,-269248
30348,-269283
30406,-269307
30468,-269320
30531,-269320
30593,-269307
Z" /> 
<path style="fill:#840084; fill-opacity:1.0; 
stroke:#840084; stroke-width:0; stroke-opacity:1; 
stroke-linecap:round; stroke-linejoin:round;fill-rule:evenodd;"
d="M 36593,-269307
36651,-269283
36704,-269248
36748,-269204
36783,-269151
36807,-269093
36820,-269031
36820,-268968
36807,-268906
36783,-268848
36748,-268795
36704,-268751
36651,-268716
36593,-268692
36531,-268679
36468,-268679
36406,-268692
36348,-268716
36295,-268751
36251,-268795
36216,-268848
36192,-268906
36179,-268968
36179,-269031
36192,-269093
36216,-269151
36251,-269204
36295,-269248
36348,-269283
36406,-269307
36468,-269320
36531,-269320
36593,-269307
Z" /> 
<path style="fill:#840084; fill-opacity:1.0; 
stroke:#840084; stroke-width:0; stroke-opacity:1; 
stroke-linecap:round; stroke-linejoin:round;fill-rule:evenodd;"
d="M 33593,-269307
33651,-269283
33704,-269248
33748,-269204
33783,-269151
33807,-269093
33820,-269031
33820,-268968
33807,-268906
33783,-268848
33748,-268795
33704,-268751
33651,-268716
33593,-268692
33531,-268679
33468,-268679
33406,-268692
33348,-268716
33295,-268751
33251,-268795
33216,-268848
33192,-268906
33179,-268968
33179,-269031
33192,-269093
33216,-269151
33251,-269204
33295,-269248
33348,-269283
33406,-269307
33468,-269320
33531,-269320
33593,-269307
Z" /> 
<path style="fill:#840084; fill-opacity:1.0; 
stroke:#840084; stroke-width:0; stroke-opacity:1; 
stroke-linecap:round; stroke-linejoin:round;fill-rule:evenodd;"
d="M 45593,-269307
45651,-269283
45704,-269248
45748,-269204
45783,-269151
45807,-269093
45820,-269031
45820,-268968
45807,-268906
45783,-268848
45748,-268795
45704,-268751
45651,-268716
45593,-268692
45531,-268679
45468,-268679
45406,-268692
45348,-268716
45295,-268751
45251,-268795
45216,-268848
45192,-268906
45179,-268968
45179,-269031
45192,-269093
45216,-269151
45251,-269204
45295,-269248
45348,-269283
45406,-269307
45468,-269320
45531,-269320
45593,-269307
Z" /> 
<path style="fill:#840084; fill-opacity:1.0; 
stroke:#840084; stroke-width:0; stroke-opacity:1; 
stroke-linecap:round; stroke-linejoin:round;fill-rule:evenodd;"
d="M 39593,-269307
39651,-269283
39704,-269248
39748,-269204
39783,-269151
39807,-269093
39820,-269031
39820,-268968
39807,-268906
39783,-268848
39748,-268795
39704,-268751
39651,-268716
39593,-268692
39531,-268679
39468,-268679
39406,-268692
39348,-268716
39295,-268751
39251,-268795
39216,-268848
39192,-268906
39179,-268968
39179,-269031
39192,-269093
39216,-269151
39251,-269204
39295,-269248
39348,-269283
39406,-269307
39468,-269320
39531,-269320
39593,-269307
Z" /> 
<path style="fill:#840084; fill-opacity:1.0; 
stroke:#840084; stroke-width:0; stroke-opacity:1; 
stroke-linecap:round; stroke-linejoin:round;fill-rule:evenodd;"
d="M 24593,-269307
24651,-269283
24704,-269248
24748,-269204
24783,-269151
24807,-269093
24820,-269031
24820,-268968
24807,-268906
24783,-268848
24748,-268795
24704,-268751
24651,-268716
24593,-268692
24531,-268679
24468,-268679
24406,-268692
24348,-268716
24295,-268751
24251,-268795
24216,-268848
24192,-268906
24179,-268968
24179,-269031
24192,-269093
24216,-269151
24251,-269204
24295,-269248
24348,-269283
24406,-269307
24468,-269320
24531,-269320
24593,-269307
Z" /> 
<path style="fill:#840084; fill-opacity:1.0; 
stroke:#840084; stroke-width:0; stroke-opacity:1; 
stroke-linecap:round; stroke-linejoin:round;fill-rule:evenodd;"
d="M 27593,-269307
27651,-269283
27704,-269248
27748,-269204
27783,-269151
27807,-269093
27820,-269031
27820,-268968
27807,-268906
27783,-268848
27748,-268795
27704,-268751
27651,-268716
27593,-268692
27531,-268679
27468,-268679
27406,-268692
27348,-268716
27295,-268751
27251,-268795
27216,-268848
27192,-268906
27179,-268968
27179,-269031
27192,-269093
27216,-269151
27251,-269204
27295,-269248
27348,-269283
27406,-269307
27468,-269320
27531,-269320
27593,-269307
Z" /> 
<path style="fill:#840084; fill-opacity:1.0; 
stroke:#840084; stroke-width:0; stroke-opacity:1; 
stroke-linecap:round; stroke-linejoin:round;fill-rule:evenodd;"
d="M 22854,-269645
22145,-269645
22145,-270354
22854,-270354
22854,-269645
Z" /> 
<path style="fill:#840084; fill-opacity:1.0; 
stroke:#840084; stroke-width:0; stroke-opacity:1; 
stroke-linecap:round; stroke-linejoin:round;fill-rule:evenodd;"
d="M 39593,-270307
39651,-270283
39704,-270248
39748,-270204
39783,-270151
39807,-270093
39820,-270031
39820,-269968
39807,-269906
39783,-269848
39748,-269795
39704,-269751
39651,-269716
39593,-269692
39531,-269679
39468,-269679
39406,-269692
39348,-269716
39295,-269751
39251,-269795
39216,-269848
39192,-269906
39179,-269968
39179,-270031
39192,-270093
39216,-270151
39251,-270204
39295,-270248
39348,-270283
39406,-270307
39468,-270320
39531,-270320
39593,-270307
Z" /> 
<path style="fill:#840084; fill-opacity:1.0; 
stroke:#840084; stroke-width:0; stroke-opacity:1; 
stroke-linecap:round; stroke-linejoin:round;fill-rule:evenodd;"
d="M 24593,-270307
24651,-270283
24704,-270248
24748,-270204
24783,-270151
24807,-270093
24820,-270031
24820,-269968
24807,-269906
24783,-269848
24748,-269795
24704,-269751
24651,-269716
24593,-269692
24531,-269679
24468,-269679
24406,-269692
24348,-269716
24295,-269751
24251,-269795
24216,-269848
24192,-269906
24179,-269968
24179,-270031
24192,-270093
24216,-270151
24251,-270204
24295,-270248
24348,-270283
24406,-270307
24468,-270320
24531,-270320
24593,-270307
Z" /> 
<path style="fill:#840084; fill-opacity:1.0; 
stroke:#840084; stroke-width:0; stroke-opacity:1; 
stroke-linecap:round; stroke-linejoin:round;fill-rule:evenodd;"
d="M 33593,-270307
33651,-270283
33704,-270248
33748,-270204
33783,-270151
33807,-270093
33820,-270031
33820,-269968
33807,-269906
33783,-269848
33748,-269795
33704,-269751
33651,-269716
33593,-269692
33531,-269679
33468,-269679
33406,-269692
33348,-269716
33295,-269751
33251,-269795
33216,-269848
33192,-269906
33179,-269968
33179,-270031
33192,-270093
33216,-270151
33251,-270204
33295,-270248
33348,-270283
33406,-270307
33468,-270320
33531,-270320
33593,-270307
Z" /> 
<path style="fill:#840084; fill-opacity:1.0; 
stroke:#840084; stroke-width:0; stroke-opacity:1; 
stroke-linecap:round; stroke-linejoin:round;fill-rule:evenodd;"
d="M 36593,-270307
36651,-270283
36704,-270248
36748,-270204
36783,-270151
36807,-270093
36820,-270031
36820,-269968
36807,-269906
36783,-269848
36748,-269795
36704,-269751
36651,-269716
36593,-269692
36531,-269679
36468,-269679
36406,-269692
36348,-269716
36295,-269751
36251,-269795
36216,-269848
36192,-269906
36179,-269968
36179,-270031
36192,-270093
36216,-270151
36251,-270204
36295,-270248
36348,-270283
36406,-270307
36468,-270320
36531,-270320
36593,-270307
Z" /> 
<path style="fill:#840084; fill-opacity:1.0; 
stroke:#840084; stroke-width:0; stroke-opacity:1; 
stroke-linecap:round; stroke-linejoin:round;fill-rule:evenodd;"
d="M 27593,-270307
27651,-270283
27704,-270248
27748,-270204
27783,-270151
27807,-270093
27820,-270031
27820,-269968
27807,-269906
27783,-269848
27748,-269795
27704,-269751
27651,-269716
27593,-269692
27531,-269679
27468,-269679
27406,-269692
27348,-269716
27295,-269751
27251,-269795
27216,-269848
27192,-269906
27179,-269968
27179,-270031
27192,-270093
27216,-270151
27251,-270204
27295,-270248
27348,-270283
27406,-270307
27468,-270320
27531,-270320
27593,-270307
Z" /> 
<path style="fill:#840084; fill-opacity:1.0; 
stroke:#840084; stroke-width:0; stroke-opacity:1; 
stroke-linecap:round; stroke-linejoin:round;fill-rule:evenodd;"
d="M 30593,-270307
30651,-270283
30704,-270248
30748,-270204
30783,-270151
30807,-270093
30820,-270031
30820,-269968
30807,-269906
30783,-269848
30748,-269795
30704,-269751
30651,-269716
30593,-269692
30531,-269679
30468,-269679
30406,-269692
30348,-269716
30295,-269751
30251,-269795
30216,-269848
30192,-269906
30179,-269968
30179,-270031
30192,-270093
30216,-270151
30251,-270204
30295,-270248
30348,-270283
30406,-270307
30468,-270320
30531,-270320
30593,-270307
Z" /> 
<path style="fill:#840084; fill-opacity:1.0; 
stroke:#840084; stroke-width:0; stroke-opacity:1; 
stroke-linecap:round; stroke-linejoin:round;fill-rule:evenodd;"
d="M 45593,-270307
45651,-270283
45704,-270248
45748,-270204
45783,-270151
45807,-270093
45820,-270031
45820,-269968
45807,-269906
45783,-269848
45748,-269795
45704,-269751
45651,-269716
45593,-269692
45531,-269679
45468,-269679
45406,-269692
45348,-269716
45295,-269751
45251,-269795
45216,-269848
45192,-269906
45179,-269968
45179,-270031
45192,-270093
45216,-270151
45251,-270204
45295,-270248
45348,-270283
45406,-270307
45468,-270320
45531,-270320
45593,-270307
Z" /> 
<path style="fill:#840084; fill-opacity:1.0; 
stroke:#840084; stroke-width:0; stroke-opacity:1; 
stroke-linecap:round; stroke-linejoin:round;fill-rule:evenodd;"
d="M 42593,-270307
42651,-270283
42704,-270248
42748,-270204
42783,-270151
42807,-270093
42820,-270031
42820,-269968
42807,-269906
42783,-269848
42748,-269795
42704,-269751
42651,-269716
42593,-269692
42531,-269679
42468,-269679
42406,-269692
42348,-269716
42295,-269751
42251,-269795
42216,-269848
42192,-269906
42179,-269968
42179,-270031
42192,-270093
42216,-270151
42251,-270204
42295,-270248
42348,-270283
42406,-270307
42468,-270320
42531,-270320
42593,-270307
Z" /> 
<path style="fill:#840084; fill-opacity:1.0; 
stroke:#840084; stroke-width:0; stroke-opacity:1; 
stroke-linecap:round; stroke-linejoin:round;fill-rule:evenodd;"
d="M 33592,-272133
33618,-272131
33685,-272110
33747,-272077
33761,-272066
33801,-272033
33834,-271993
33845,-271979
33878,-271917
33898,-271851
33905,-271781
33898,-271711
33878,-271645
33845,-271583
33834,-271569
33801,-271529
33761,-271496
33747,-271485
33685,-271452
33618,-271431
33592,-271429
33566,-271426
33531,-271426
33505,-271429
33479,-271431
33412,-271452
33351,-271485
33337,-271496
33297,-271529
33264,-271569
33252,-271583
33219,-271645
33199,-271711
33192,-271781
33199,-271851
33219,-271917
33252,-271979
33264,-271993
33297,-272033
33337,-272066
33351,-272077
33412,-272110
33479,-272131
33505,-272133
33531,-272136
33566,-272136
33592,-272133
Z" /> 
<path style="fill:#840084; fill-opacity:1.0; 
stroke:#840084; stroke-width:0; stroke-opacity:1; 
stroke-linecap:round; stroke-linejoin:round;fill-rule:evenodd;"
d="M 35423,-272133
35449,-272131
35516,-272110
35577,-272077
35592,-272066
35631,-272033
35664,-271993
35676,-271979
35709,-271917
35729,-271851
35736,-271781
35729,-271711
35709,-271645
35676,-271583
35664,-271569
35631,-271529
35592,-271496
35577,-271485
35516,-271452
35449,-271431
35423,-271429
35397,-271426
35362,-271426
35336,-271429
35310,-271431
35243,-271452
35181,-271485
35167,-271496
35127,-271529
35095,-271569
35083,-271583
35050,-271645
35030,-271711
35023,-271781
35030,-271851
35050,-271917
35083,-271979
35095,-271993
35127,-272033
35167,-272066
35181,-272077
35243,-272110
35310,-272131
35336,-272133
35362,-272136
35397,-272136
35423,-272133
Z" /> 
<path style="fill:#840084; fill-opacity:1.0; 
stroke:#840084; stroke-width:0; stroke-opacity:1; 
stroke-linecap:round; stroke-linejoin:round;fill-rule:evenodd;"
d="M 31761,-272133
31788,-272131
31854,-272110
31916,-272077
31930,-272066
31970,-272033
32003,-271993
32014,-271979
32047,-271917
32068,-271851
32074,-271781
32068,-271711
32047,-271645
32014,-271583
32003,-271569
31970,-271529
31930,-271496
31916,-271485
31854,-271452
31788,-271431
31761,-271429
31735,-271426
31701,-271426
31675,-271429
31648,-271431
31582,-271452
31520,-271485
31506,-271496
31466,-271529
31433,-271569
31422,-271583
31389,-271645
31368,-271711
31362,-271781
31368,-271851
31389,-271917
31422,-271979
31433,-271993
31466,-272033
31506,-272066
31520,-272077
31582,-272110
31648,-272131
31675,-272133
31701,-272136
31735,-272136
31761,-272133
Z" /> 
<path style="fill:#840084; fill-opacity:1.0; 
stroke:#840084; stroke-width:0; stroke-opacity:1; 
stroke-linecap:round; stroke-linejoin:round;fill-rule:evenodd;"
d="M 35734,-272426
35025,-272426
35025,-273136
35734,-273136
35734,-272426
Z" /> 
<path style="fill:#840084; fill-opacity:1.0; 
stroke:#840084; stroke-width:0; stroke-opacity:1; 
stroke-linecap:round; stroke-linejoin:round;fill-rule:evenodd;"
d="M 33903,-272426
33194,-272426
33194,-273136
33903,-273136
33903,-272426
Z" /> 
<path style="fill:#840084; fill-opacity:1.0; 
stroke:#840084; stroke-width:0; stroke-opacity:1; 
stroke-linecap:round; stroke-linejoin:round;fill-rule:evenodd;"
d="M 32073,-272426
31363,-272426
31363,-273136
32073,-273136
32073,-272426
Z" /> 
</g>
<g style="fill:#000000; fill-opacity:1.0; 
stroke:#000000; stroke-width:0; stroke-opacity:1; 
stroke-linecap:round; stroke-linejoin:round;">
<g >
</g>
<g >
</g>
<g >
</g>
<g >
</g>
<g >
</g>
<g >
</g>
<g >
</g>
<g >
</g>
<g >
</g>
<g >
</g>
</g> 
</svg>
