<?xml version="1.0" standalone="no"?>
 <!DOCTYPE svg PUBLIC "-//W3C//DTD SVG 1.1//EN" 
 "http://www.w3.org/Graphics/SVG/1.1/DTD/svg11.dtd"> 
<svg xmlns="http://www.w3.org/2000/svg" version="1.1" 
    width="29.7002cm" height="21.0007cm" viewBox="0 0 116930 82680 ">
<title>SVG Picture created as verilog-alu-kicad-F_SilkS.svg date 2020/01/07 10:43:02 </title>
  <desc>Picture generated by PCBNEW </desc>
<g style="fill:#000000; fill-opacity:1;stroke:#000000; stroke-opacity:1;
stroke-linecap:round; stroke-linejoin:round; "
 transform="translate(0 0) scale(1 1)">
</g>
<g style="fill:#000000; fill-opacity:0.0; 
stroke:#000000; stroke-width:-0.000393701; stroke-opacity:1; 
stroke-linecap:round; stroke-linejoin:round;">
</g>
<g style="fill:#000000; fill-opacity:0.0; 
stroke:#000000; stroke-width:39.3701; stroke-opacity:1; 
stroke-linecap:round; stroke-linejoin:round;">
</g>
<g style="fill:#000000; fill-opacity:0.0; 
stroke:#000000; stroke-width:59.0551; stroke-opacity:1; 
stroke-linecap:round; stroke-linejoin:round;">
<rect x="69685.9" y="65357.2" width="42519.7" height="12598.4" rx="0" />
</g>
<g style="fill:#000000; fill-opacity:0.0; 
stroke:#000000; stroke-width:39.3701; stroke-opacity:1; 
stroke-linecap:round; stroke-linejoin:round;">
</g>
<g style="fill:#000000; fill-opacity:0.0; 
stroke:#000000; stroke-width:59.0551; stroke-opacity:1; 
stroke-linecap:round; stroke-linejoin:round;">
<rect x="3937.01" y="3937.01" width="109056" height="74806" rx="0" />
</g>
<g style="fill:#000000; fill-opacity:0.0; 
stroke:#000000; stroke-width:39.3701; stroke-opacity:1; 
stroke-linecap:round; stroke-linejoin:round;">
</g>
<g style="fill:#000000; fill-opacity:0.0; 
stroke:#000000; stroke-width:59.0551; stroke-opacity:1; 
stroke-linecap:round; stroke-linejoin:round;">
<rect x="4724.41" y="4724.41" width="107481" height="73231.2" rx="0" />
</g>
<g style="fill:#000000; fill-opacity:0.0; 
stroke:#000000; stroke-width:39.3701; stroke-opacity:1; 
stroke-linecap:round; stroke-linejoin:round;">
</g>
<g style="fill:#000000; fill-opacity:0.0; 
stroke:#000000; stroke-width:59.0551; stroke-opacity:1; 
stroke-linecap:round; stroke-linejoin:round;">
<path d="M23622 4724
L23622 3937
" />
</g>
<g style="fill:#000000; fill-opacity:0.0; 
stroke:#000000; stroke-width:39.3701; stroke-opacity:1; 
stroke-linecap:round; stroke-linejoin:round;">
</g>
<g style="fill:#000000; fill-opacity:0.0; 
stroke:#000000; stroke-width:59.0551; stroke-opacity:1; 
stroke-linecap:round; stroke-linejoin:round;">
<path d="M43307 4724
L43307 3937
" />
</g>
<g style="fill:#000000; fill-opacity:0.0; 
stroke:#000000; stroke-width:39.3701; stroke-opacity:1; 
stroke-linecap:round; stroke-linejoin:round;">
</g>
<g style="fill:#000000; fill-opacity:0.0; 
stroke:#000000; stroke-width:59.0551; stroke-opacity:1; 
stroke-linecap:round; stroke-linejoin:round;">
<path d="M62992 4724
L62992 3937
" />
</g>
<g style="fill:#000000; fill-opacity:0.0; 
stroke:#000000; stroke-width:39.3701; stroke-opacity:1; 
stroke-linecap:round; stroke-linejoin:round;">
</g>
<g style="fill:#000000; fill-opacity:0.0; 
stroke:#000000; stroke-width:59.0551; stroke-opacity:1; 
stroke-linecap:round; stroke-linejoin:round;">
<path d="M82677 4724
L82677 3937
" />
</g>
<g style="fill:#000000; fill-opacity:0.0; 
stroke:#000000; stroke-width:39.3701; stroke-opacity:1; 
stroke-linecap:round; stroke-linejoin:round;">
</g>
<g style="fill:#000000; fill-opacity:0.0; 
stroke:#000000; stroke-width:59.0551; stroke-opacity:1; 
stroke-linecap:round; stroke-linejoin:round;">
<path d="M102362 4724
L102362 3937
" />
</g>
<g style="fill:#000000; fill-opacity:0.0; 
stroke:#000000; stroke-width:39.3701; stroke-opacity:1; 
stroke-linecap:round; stroke-linejoin:round;">
</g>
<g style="fill:#000000; fill-opacity:0.0; 
stroke:#000000; stroke-width:59.0551; stroke-opacity:1; 
stroke-linecap:round; stroke-linejoin:round;">
<path d="M14199 4562
L13906 4562
" />
<path d="M14052 4562
L14052 4050
L14004 4123
L13955 4172
L13906 4196
" />
</g>
<g style="fill:#000000; fill-opacity:0.0; 
stroke:#000000; stroke-width:39.3701; stroke-opacity:1; 
stroke-linecap:round; stroke-linejoin:round;">
</g>
<g style="fill:#000000; fill-opacity:0.0; 
stroke:#000000; stroke-width:59.0551; stroke-opacity:1; 
stroke-linecap:round; stroke-linejoin:round;">
<path d="M33591 4099
L33615 4074
L33664 4050
L33786 4050
L33835 4074
L33859 4099
L33884 4147
L33884 4196
L33859 4269
L33567 4562
L33884 4562
" />
</g>
<g style="fill:#000000; fill-opacity:0.0; 
stroke:#000000; stroke-width:39.3701; stroke-opacity:1; 
stroke-linecap:round; stroke-linejoin:round;">
</g>
<g style="fill:#000000; fill-opacity:0.0; 
stroke:#000000; stroke-width:59.0551; stroke-opacity:1; 
stroke-linecap:round; stroke-linejoin:round;">
<path d="M53252 4050
L53569 4050
L53398 4245
L53471 4245
L53520 4269
L53544 4294
L53569 4342
L53569 4464
L53544 4513
L53520 4537
L53471 4562
L53325 4562
L53276 4537
L53252 4513
" />
</g>
<g style="fill:#000000; fill-opacity:0.0; 
stroke:#000000; stroke-width:39.3701; stroke-opacity:1; 
stroke-linecap:round; stroke-linejoin:round;">
</g>
<g style="fill:#000000; fill-opacity:0.0; 
stroke:#000000; stroke-width:59.0551; stroke-opacity:1; 
stroke-linecap:round; stroke-linejoin:round;">
<path d="M73205 4221
L73205 4562
" />
<path d="M73083 4026
L72961 4391
L73278 4391
" />
</g>
<g style="fill:#000000; fill-opacity:0.0; 
stroke:#000000; stroke-width:39.3701; stroke-opacity:1; 
stroke-linecap:round; stroke-linejoin:round;">
</g>
<g style="fill:#000000; fill-opacity:0.0; 
stroke:#000000; stroke-width:59.0551; stroke-opacity:1; 
stroke-linecap:round; stroke-linejoin:round;">
<path d="M92914 4050
L92671 4050
L92646 4294
L92671 4269
L92719 4245
L92841 4245
L92890 4269
L92914 4294
L92939 4342
L92939 4464
L92914 4513
L92890 4537
L92841 4562
L92719 4562
L92671 4537
L92646 4513
" />
</g>
<g style="fill:#000000; fill-opacity:0.0; 
stroke:#000000; stroke-width:39.3701; stroke-opacity:1; 
stroke-linecap:round; stroke-linejoin:round;">
</g>
<g style="fill:#000000; fill-opacity:0.0; 
stroke:#000000; stroke-width:59.0551; stroke-opacity:1; 
stroke-linecap:round; stroke-linejoin:round;">
<path d="M112575 4050
L112477 4050
L112429 4074
L112404 4099
L112356 4172
L112331 4269
L112331 4464
L112356 4513
L112380 4537
L112429 4562
L112526 4562
L112575 4537
L112599 4513
L112624 4464
L112624 4342
L112599 4294
L112575 4269
L112526 4245
L112429 4245
L112380 4269
L112356 4294
L112331 4342
" />
</g>
<g style="fill:#000000; fill-opacity:0.0; 
stroke:#000000; stroke-width:39.3701; stroke-opacity:1; 
stroke-linecap:round; stroke-linejoin:round;">
</g>
<g style="fill:#000000; fill-opacity:0.0; 
stroke:#000000; stroke-width:59.0551; stroke-opacity:1; 
stroke-linecap:round; stroke-linejoin:round;">
<path d="M23622 77955
L23622 78742
" />
</g>
<g style="fill:#000000; fill-opacity:0.0; 
stroke:#000000; stroke-width:39.3701; stroke-opacity:1; 
stroke-linecap:round; stroke-linejoin:round;">
</g>
<g style="fill:#000000; fill-opacity:0.0; 
stroke:#000000; stroke-width:59.0551; stroke-opacity:1; 
stroke-linecap:round; stroke-linejoin:round;">
<path d="M43307 77955
L43307 78742
" />
</g>
<g style="fill:#000000; fill-opacity:0.0; 
stroke:#000000; stroke-width:39.3701; stroke-opacity:1; 
stroke-linecap:round; stroke-linejoin:round;">
</g>
<g style="fill:#000000; fill-opacity:0.0; 
stroke:#000000; stroke-width:59.0551; stroke-opacity:1; 
stroke-linecap:round; stroke-linejoin:round;">
<path d="M62992 77955
L62992 78742
" />
</g>
<g style="fill:#000000; fill-opacity:0.0; 
stroke:#000000; stroke-width:39.3701; stroke-opacity:1; 
stroke-linecap:round; stroke-linejoin:round;">
</g>
<g style="fill:#000000; fill-opacity:0.0; 
stroke:#000000; stroke-width:59.0551; stroke-opacity:1; 
stroke-linecap:round; stroke-linejoin:round;">
<path d="M82677 77955
L82677 78742
" />
</g>
<g style="fill:#000000; fill-opacity:0.0; 
stroke:#000000; stroke-width:39.3701; stroke-opacity:1; 
stroke-linecap:round; stroke-linejoin:round;">
</g>
<g style="fill:#000000; fill-opacity:0.0; 
stroke:#000000; stroke-width:59.0551; stroke-opacity:1; 
stroke-linecap:round; stroke-linejoin:round;">
<path d="M102362 77955
L102362 78742
" />
</g>
<g style="fill:#000000; fill-opacity:0.0; 
stroke:#000000; stroke-width:39.3701; stroke-opacity:1; 
stroke-linecap:round; stroke-linejoin:round;">
</g>
<g style="fill:#000000; fill-opacity:0.0; 
stroke:#000000; stroke-width:59.0551; stroke-opacity:1; 
stroke-linecap:round; stroke-linejoin:round;">
<path d="M14199 78580
L13906 78580
" />
<path d="M14052 78580
L14052 78069
L14004 78142
L13955 78190
L13906 78215
" />
</g>
<g style="fill:#000000; fill-opacity:0.0; 
stroke:#000000; stroke-width:39.3701; stroke-opacity:1; 
stroke-linecap:round; stroke-linejoin:round;">
</g>
<g style="fill:#000000; fill-opacity:0.0; 
stroke:#000000; stroke-width:59.0551; stroke-opacity:1; 
stroke-linecap:round; stroke-linejoin:round;">
<path d="M33591 78117
L33615 78093
L33664 78069
L33786 78069
L33835 78093
L33859 78117
L33884 78166
L33884 78215
L33859 78288
L33567 78580
L33884 78580
" />
</g>
<g style="fill:#000000; fill-opacity:0.0; 
stroke:#000000; stroke-width:39.3701; stroke-opacity:1; 
stroke-linecap:round; stroke-linejoin:round;">
</g>
<g style="fill:#000000; fill-opacity:0.0; 
stroke:#000000; stroke-width:59.0551; stroke-opacity:1; 
stroke-linecap:round; stroke-linejoin:round;">
<path d="M53252 78069
L53569 78069
L53398 78263
L53471 78263
L53520 78288
L53544 78312
L53569 78361
L53569 78483
L53544 78532
L53520 78556
L53471 78580
L53325 78580
L53276 78556
L53252 78532
" />
</g>
<g style="fill:#000000; fill-opacity:0.0; 
stroke:#000000; stroke-width:39.3701; stroke-opacity:1; 
stroke-linecap:round; stroke-linejoin:round;">
</g>
<g style="fill:#000000; fill-opacity:0.0; 
stroke:#000000; stroke-width:59.0551; stroke-opacity:1; 
stroke-linecap:round; stroke-linejoin:round;">
<path d="M73205 78239
L73205 78580
" />
<path d="M73083 78044
L72961 78410
L73278 78410
" />
</g>
<g style="fill:#000000; fill-opacity:0.0; 
stroke:#000000; stroke-width:39.3701; stroke-opacity:1; 
stroke-linecap:round; stroke-linejoin:round;">
</g>
<g style="fill:#000000; fill-opacity:0.0; 
stroke:#000000; stroke-width:59.0551; stroke-opacity:1; 
stroke-linecap:round; stroke-linejoin:round;">
<path d="M92914 78069
L92671 78069
L92646 78312
L92671 78288
L92719 78263
L92841 78263
L92890 78288
L92914 78312
L92939 78361
L92939 78483
L92914 78532
L92890 78556
L92841 78580
L92719 78580
L92671 78556
L92646 78532
" />
</g>
<g style="fill:#000000; fill-opacity:0.0; 
stroke:#000000; stroke-width:39.3701; stroke-opacity:1; 
stroke-linecap:round; stroke-linejoin:round;">
</g>
<g style="fill:#000000; fill-opacity:0.0; 
stroke:#000000; stroke-width:59.0551; stroke-opacity:1; 
stroke-linecap:round; stroke-linejoin:round;">
<path d="M112575 78069
L112477 78069
L112429 78093
L112404 78117
L112356 78190
L112331 78288
L112331 78483
L112356 78532
L112380 78556
L112429 78580
L112526 78580
L112575 78556
L112599 78532
L112624 78483
L112624 78361
L112599 78312
L112575 78288
L112526 78263
L112429 78263
L112380 78288
L112356 78312
L112331 78361
" />
</g>
<g style="fill:#000000; fill-opacity:0.0; 
stroke:#000000; stroke-width:39.3701; stroke-opacity:1; 
stroke-linecap:round; stroke-linejoin:round;">
</g>
<g style="fill:#000000; fill-opacity:0.0; 
stroke:#000000; stroke-width:59.0551; stroke-opacity:1; 
stroke-linecap:round; stroke-linejoin:round;">
<path d="M3937 23622
L4724 23622
" />
</g>
<g style="fill:#000000; fill-opacity:0.0; 
stroke:#000000; stroke-width:39.3701; stroke-opacity:1; 
stroke-linecap:round; stroke-linejoin:round;">
</g>
<g style="fill:#000000; fill-opacity:0.0; 
stroke:#000000; stroke-width:59.0551; stroke-opacity:1; 
stroke-linecap:round; stroke-linejoin:round;">
<path d="M3937 43307
L4724 43307
" />
</g>
<g style="fill:#000000; fill-opacity:0.0; 
stroke:#000000; stroke-width:39.3701; stroke-opacity:1; 
stroke-linecap:round; stroke-linejoin:round;">
</g>
<g style="fill:#000000; fill-opacity:0.0; 
stroke:#000000; stroke-width:59.0551; stroke-opacity:1; 
stroke-linecap:round; stroke-linejoin:round;">
<path d="M3937 62992
L4724 62992
" />
</g>
<g style="fill:#000000; fill-opacity:0.0; 
stroke:#000000; stroke-width:39.3701; stroke-opacity:1; 
stroke-linecap:round; stroke-linejoin:round;">
</g>
<g style="fill:#000000; fill-opacity:0.0; 
stroke:#000000; stroke-width:59.0551; stroke-opacity:1; 
stroke-linecap:round; stroke-linejoin:round;">
<path d="M4208 13864
L4452 13864
" />
<path d="M4160 14011
L4330 13499
L4501 14011
" />
</g>
<g style="fill:#000000; fill-opacity:0.0; 
stroke:#000000; stroke-width:39.3701; stroke-opacity:1; 
stroke-linecap:round; stroke-linejoin:round;">
</g>
<g style="fill:#000000; fill-opacity:0.0; 
stroke:#000000; stroke-width:59.0551; stroke-opacity:1; 
stroke-linecap:round; stroke-linejoin:round;">
<path d="M4367 33428
L4440 33452
L4464 33476
L4489 33525
L4489 33598
L4464 33647
L4440 33671
L4391 33696
L4196 33696
L4196 33184
L4367 33184
L4416 33208
L4440 33233
L4464 33281
L4464 33330
L4440 33379
L4416 33403
L4367 33428
L4196 33428
" />
</g>
<g style="fill:#000000; fill-opacity:0.0; 
stroke:#000000; stroke-width:39.3701; stroke-opacity:1; 
stroke-linecap:round; stroke-linejoin:round;">
</g>
<g style="fill:#000000; fill-opacity:0.0; 
stroke:#000000; stroke-width:59.0551; stroke-opacity:1; 
stroke-linecap:round; stroke-linejoin:round;">
<path d="M4489 53332
L4464 53356
L4391 53381
L4342 53381
L4269 53356
L4221 53308
L4196 53259
L4172 53161
L4172 53088
L4196 52991
L4221 52942
L4269 52893
L4342 52869
L4391 52869
L4464 52893
L4489 52918
" />
</g>
<g style="fill:#000000; fill-opacity:0.0; 
stroke:#000000; stroke-width:39.3701; stroke-opacity:1; 
stroke-linecap:round; stroke-linejoin:round;">
</g>
<g style="fill:#000000; fill-opacity:0.0; 
stroke:#000000; stroke-width:59.0551; stroke-opacity:1; 
stroke-linecap:round; stroke-linejoin:round;">
<path d="M4196 73066
L4196 72554
L4318 72554
L4391 72578
L4440 72627
L4464 72676
L4489 72773
L4489 72846
L4464 72944
L4440 72993
L4391 73041
L4318 73066
L4196 73066
" />
</g>
<g style="fill:#000000; fill-opacity:0.0; 
stroke:#000000; stroke-width:39.3701; stroke-opacity:1; 
stroke-linecap:round; stroke-linejoin:round;">
</g>
<g style="fill:#000000; fill-opacity:0.0; 
stroke:#000000; stroke-width:59.0551; stroke-opacity:1; 
stroke-linecap:round; stroke-linejoin:round;">
<path d="M112992 23622
L112205 23622
" />
</g>
<g style="fill:#000000; fill-opacity:0.0; 
stroke:#000000; stroke-width:39.3701; stroke-opacity:1; 
stroke-linecap:round; stroke-linejoin:round;">
</g>
<g style="fill:#000000; fill-opacity:0.0; 
stroke:#000000; stroke-width:59.0551; stroke-opacity:1; 
stroke-linecap:round; stroke-linejoin:round;">
<path d="M112992 43307
L112205 43307
" />
</g>
<g style="fill:#000000; fill-opacity:0.0; 
stroke:#000000; stroke-width:39.3701; stroke-opacity:1; 
stroke-linecap:round; stroke-linejoin:round;">
</g>
<g style="fill:#000000; fill-opacity:0.0; 
stroke:#000000; stroke-width:59.0551; stroke-opacity:1; 
stroke-linecap:round; stroke-linejoin:round;">
<path d="M112992 62992
L112205 62992
" />
</g>
<g style="fill:#000000; fill-opacity:0.0; 
stroke:#000000; stroke-width:39.3701; stroke-opacity:1; 
stroke-linecap:round; stroke-linejoin:round;">
</g>
<g style="fill:#000000; fill-opacity:0.0; 
stroke:#000000; stroke-width:59.0551; stroke-opacity:1; 
stroke-linecap:round; stroke-linejoin:round;">
<path d="M112477 13864
L112721 13864
" />
<path d="M112428 14011
L112599 13499
L112769 14011
" />
</g>
<g style="fill:#000000; fill-opacity:0.0; 
stroke:#000000; stroke-width:39.3701; stroke-opacity:1; 
stroke-linecap:round; stroke-linejoin:round;">
</g>
<g style="fill:#000000; fill-opacity:0.0; 
stroke:#000000; stroke-width:59.0551; stroke-opacity:1; 
stroke-linecap:round; stroke-linejoin:round;">
<path d="M112635 33428
L112708 33452
L112733 33476
L112757 33525
L112757 33598
L112733 33647
L112708 33671
L112660 33696
L112465 33696
L112465 33184
L112635 33184
L112684 33208
L112708 33233
L112733 33281
L112733 33330
L112708 33379
L112684 33403
L112635 33428
L112465 33428
" />
</g>
<g style="fill:#000000; fill-opacity:0.0; 
stroke:#000000; stroke-width:39.3701; stroke-opacity:1; 
stroke-linecap:round; stroke-linejoin:round;">
</g>
<g style="fill:#000000; fill-opacity:0.0; 
stroke:#000000; stroke-width:59.0551; stroke-opacity:1; 
stroke-linecap:round; stroke-linejoin:round;">
<path d="M112757 53332
L112733 53356
L112660 53381
L112611 53381
L112538 53356
L112489 53308
L112465 53259
L112440 53161
L112440 53088
L112465 52991
L112489 52942
L112538 52893
L112611 52869
L112660 52869
L112733 52893
L112757 52918
" />
</g>
<g style="fill:#000000; fill-opacity:0.0; 
stroke:#000000; stroke-width:39.3701; stroke-opacity:1; 
stroke-linecap:round; stroke-linejoin:round;">
</g>
<g style="fill:#000000; fill-opacity:0.0; 
stroke:#000000; stroke-width:59.0551; stroke-opacity:1; 
stroke-linecap:round; stroke-linejoin:round;">
<path d="M112465 73066
L112465 72554
L112587 72554
L112660 72578
L112708 72627
L112733 72676
L112757 72773
L112757 72846
L112733 72944
L112708 72993
L112660 73041
L112587 73066
L112465 73066
" />
</g>
<g style="fill:#000000; fill-opacity:0.0; 
stroke:#000000; stroke-width:39.3701; stroke-opacity:1; 
stroke-linecap:round; stroke-linejoin:round;">
</g>
<g style="fill:#000000; fill-opacity:0.0; 
stroke:#000000; stroke-width:59.0551; stroke-opacity:1; 
stroke-linecap:round; stroke-linejoin:round;">
<path d="M78911 76293
L78911 75703
L79051 75703
L79136 75731
L79192 75787
L79220 75843
L79248 75956
L79248 76040
L79220 76153
L79192 76209
L79136 76265
L79051 76293
L78911 76293
" />
<path d="M79754 76293
L79754 75984
L79726 75928
L79670 75899
L79557 75899
L79501 75928
" />
<path d="M79754 76265
L79698 76293
L79557 76293
L79501 76265
L79473 76209
L79473 76153
L79501 76096
L79557 76068
L79698 76068
L79754 76040
" />
<path d="M79951 75899
L80176 75899
" />
<path d="M80036 75703
L80036 76209
L80064 76265
L80120 76293
L80176 76293
" />
<path d="M80598 76265
L80542 76293
L80429 76293
L80373 76265
L80345 76209
L80345 75984
L80373 75928
L80429 75899
L80542 75899
L80598 75928
L80626 75984
L80626 76040
L80345 76096
" />
<path d="M80879 76237
L80907 76265
L80879 76293
L80851 76265
L80879 76237
L80879 76293
" />
<path d="M80879 75928
L80907 75956
L80879 75984
L80851 75956
L80879 75928
L80879 75984
" />
</g>
<g style="fill:#000000; fill-opacity:0.0; 
stroke:#000000; stroke-width:39.3701; stroke-opacity:1; 
stroke-linecap:round; stroke-linejoin:round;">
</g>
<g style="fill:#000000; fill-opacity:0.0; 
stroke:#000000; stroke-width:59.0551; stroke-opacity:1; 
stroke-linecap:round; stroke-linejoin:round;">
<path d="M69685 76577
L112205 76577
" />
</g>
<g style="fill:#000000; fill-opacity:0.0; 
stroke:#000000; stroke-width:39.3701; stroke-opacity:1; 
stroke-linecap:round; stroke-linejoin:round;">
</g>
<g style="fill:#000000; fill-opacity:0.0; 
stroke:#000000; stroke-width:59.0551; stroke-opacity:1; 
stroke-linecap:round; stroke-linejoin:round;">
<path d="M70249 77395
L70249 76805
" />
<path d="M70587 77395
L70334 77058
" />
<path d="M70587 76805
L70249 77142
" />
<path d="M70840 77395
L70840 77002
" />
<path d="M70840 76805
L70812 76833
L70840 76861
L70868 76833
L70840 76805
L70840 76861
" />
<path d="M71458 77339
L71430 77367
L71346 77395
L71290 77395
L71205 77367
L71149 77311
L71121 77255
L71093 77142
L71093 77058
L71121 76946
L71149 76889
L71205 76833
L71290 76805
L71346 76805
L71430 76833
L71458 76861
" />
<path d="M71965 77395
L71965 77086
L71937 77030
L71880 77002
L71768 77002
L71712 77030
" />
<path d="M71965 77367
L71908 77395
L71768 77395
L71712 77367
L71683 77311
L71683 77255
L71712 77199
L71768 77171
L71908 77171
L71965 77142
" />
<path d="M72499 77395
L72499 76805
" />
<path d="M72499 77367
L72443 77395
L72330 77395
L72274 77367
L72246 77339
L72218 77283
L72218 77114
L72246 77058
L72274 77030
L72330 77002
L72443 77002
L72499 77030
" />
<path d="M73230 77086
L73427 77086
" />
<path d="M73511 77395
L73230 77395
L73230 76805
L73511 76805
" />
<path d="M73764 77339
L73793 77367
L73764 77395
L73736 77367
L73764 77339
L73764 77395
" />
<path d="M74046 77395
L74046 76805
L74186 76805
L74271 76833
L74327 76889
L74355 76946
L74383 77058
L74383 77142
L74355 77255
L74327 77311
L74271 77367
L74186 77395
L74046 77395
" />
<path d="M74636 77339
L74664 77367
L74636 77395
L74608 77367
L74636 77339
L74636 77395
" />
<path d="M74889 77227
L75171 77227
" />
<path d="M74833 77395
L75030 76805
L75227 77395
" />
<path d="M75424 77339
L75452 77367
L75424 77395
L75395 77367
L75424 77339
L75424 77395
" />
<path d="M76605 77395
L76605 76805
" />
<path d="M76661 77171
L76830 77395
" />
<path d="M76830 77002
L76605 77227
" />
<path d="M77083 77395
L77083 77002
" />
<path d="M77083 76805
L77055 76833
L77083 76861
L77111 76833
L77083 76805
L77083 76861
" />
<path d="M77617 77367
L77561 77395
L77448 77395
L77392 77367
L77364 77339
L77336 77283
L77336 77114
L77364 77058
L77392 77030
L77448 77002
L77561 77002
L77617 77030
" />
<path d="M78123 77395
L78123 77086
L78095 77030
L78039 77002
L77926 77002
L77870 77030
" />
<path d="M78123 77367
L78067 77395
L77926 77395
L77870 77367
L77842 77311
L77842 77255
L77870 77199
L77926 77171
L78067 77171
L78123 77142
" />
<path d="M78658 77395
L78658 76805
" />
<path d="M78658 77367
L78601 77395
L78489 77395
L78433 77367
L78404 77339
L78376 77283
L78376 77114
L78404 77058
L78433 77030
L78489 77002
L78601 77002
L78658 77030
" />
<path d="M79670 76805
L79389 76805
L79361 77086
L79389 77058
L79445 77030
L79586 77030
L79642 77058
L79670 77086
L79698 77142
L79698 77283
L79670 77339
L79642 77367
L79586 77395
L79445 77395
L79389 77367
L79361 77339
" />
<path d="M79951 77339
L79979 77367
L79951 77395
L79923 77367
L79951 77339
L79951 77395
" />
<path d="M80542 77395
L80204 77395
" />
<path d="M80373 77395
L80373 76805
L80317 76889
L80260 76946
L80204 76974
" />
<path d="M80795 77339
L80823 77367
L80795 77395
L80767 77367
L80795 77339
L80795 77395
" />
<path d="M81329 77002
L81329 77395
" />
<path d="M81188 76777
L81048 77199
L81413 77199
" />
</g>
<g style="fill:#000000; fill-opacity:0.0; 
stroke:#000000; stroke-width:39.3701; stroke-opacity:1; 
stroke-linecap:round; stroke-linejoin:round;">
</g>
<g style="fill:#000000; fill-opacity:0.0; 
stroke:#000000; stroke-width:59.0551; stroke-opacity:1; 
stroke-linecap:round; stroke-linejoin:round;">
<path d="M69685 75396
L112205 75396
" />
</g>
<g style="fill:#000000; fill-opacity:0.0; 
stroke:#000000; stroke-width:39.3701; stroke-opacity:1; 
stroke-linecap:round; stroke-linejoin:round;">
</g>
<g style="fill:#000000; fill-opacity:0.0; 
stroke:#000000; stroke-width:118.11; stroke-opacity:1; 
stroke-linecap:round; stroke-linejoin:round;">
<path d="M104099 76293
L103902 76012
" />
<path d="M103761 76293
L103761 75703
L103986 75703
L104042 75731
L104070 75759
L104099 75815
L104099 75899
L104070 75956
L104042 75984
L103986 76012
L103761 76012
" />
<path d="M104577 76265
L104520 76293
L104408 76293
L104352 76265
L104323 76209
L104323 75984
L104352 75928
L104408 75899
L104520 75899
L104577 75928
L104605 75984
L104605 76040
L104323 76096
" />
<path d="M104802 75899
L104942 76293
L105083 75899
" />
<path d="M105308 76237
L105336 76265
L105308 76293
L105280 76265
L105308 76237
L105308 76293
" />
<path d="M105308 75928
L105336 75956
L105308 75984
L105280 75956
L105308 75928
L105308 75984
" />
</g>
<g style="fill:#000000; fill-opacity:0.0; 
stroke:#000000; stroke-width:39.3701; stroke-opacity:1; 
stroke-linecap:round; stroke-linejoin:round;">
</g>
<g style="fill:#000000; fill-opacity:0.0; 
stroke:#000000; stroke-width:59.0551; stroke-opacity:1; 
stroke-linecap:round; stroke-linejoin:round;">
<path d="M70221 76265
L70305 76293
L70446 76293
L70502 76265
L70530 76237
L70559 76181
L70559 76124
L70530 76068
L70502 76040
L70446 76012
L70334 75984
L70277 75956
L70249 75928
L70221 75871
L70221 75815
L70249 75759
L70277 75731
L70334 75703
L70474 75703
L70559 75731
" />
<path d="M70812 76293
L70812 75899
" />
<path d="M70812 75703
L70784 75731
L70812 75759
L70840 75731
L70812 75703
L70812 75759
" />
<path d="M71037 75899
L71346 75899
L71037 76293
L71346 76293
" />
<path d="M71796 76265
L71740 76293
L71627 76293
L71571 76265
L71543 76209
L71543 75984
L71571 75928
L71627 75899
L71740 75899
L71796 75928
L71824 75984
L71824 76040
L71543 76096
" />
<path d="M72077 76237
L72105 76265
L72077 76293
L72049 76265
L72077 76237
L72077 76293
" />
<path d="M72077 75928
L72105 75956
L72077 75984
L72049 75956
L72077 75928
L72077 75984
" />
<path d="M72780 76124
L73061 76124
" />
<path d="M72724 76293
L72921 75703
L73118 76293
" />
<path d="M73568 75899
L73568 76293
" />
<path d="M73427 75674
L73286 76096
L73652 76096
" />
</g>
<g style="fill:#000000; fill-opacity:0.0; 
stroke:#000000; stroke-width:39.3701; stroke-opacity:1; 
stroke-linecap:round; stroke-linejoin:round;">
</g>
<g style="fill:#000000; fill-opacity:0.0; 
stroke:#000000; stroke-width:59.0551; stroke-opacity:1; 
stroke-linecap:round; stroke-linejoin:round;">
<path d="M103714 77395
L103714 76805
" />
<path d="M104248 77395
L104248 76805
" />
<path d="M104248 77367
L104192 77395
L104079 77395
L104023 77367
L103995 77339
L103967 77283
L103967 77114
L103995 77058
L104023 77030
L104079 77002
L104192 77002
L104248 77030
" />
<path d="M104529 77339
L104557 77367
L104529 77395
L104501 77367
L104529 77339
L104529 77395
" />
<path d="M104529 77030
L104557 77058
L104529 77086
L104501 77058
L104529 77030
L104529 77086
" />
<path d="M105570 77395
L105232 77395
" />
<path d="M105401 77395
L105401 76805
L105345 76889
L105289 76946
L105232 76974
" />
<path d="M106245 76777
L105739 77536
" />
<path d="M106751 77395
L106413 77395
" />
<path d="M106582 77395
L106582 76805
L106526 76889
L106470 76946
L106413 76974
" />
</g>
<g style="fill:#000000; fill-opacity:0.0; 
stroke:#000000; stroke-width:39.3701; stroke-opacity:1; 
stroke-linecap:round; stroke-linejoin:round;">
</g>
<g style="fill:#000000; fill-opacity:0.0; 
stroke:#000000; stroke-width:59.0551; stroke-opacity:1; 
stroke-linecap:round; stroke-linejoin:round;">
<path d="M69685 73821
L112205 73821
" />
</g>
<g style="fill:#000000; fill-opacity:0.0; 
stroke:#000000; stroke-width:39.3701; stroke-opacity:1; 
stroke-linecap:round; stroke-linejoin:round;">
</g>
<g style="fill:#000000; fill-opacity:0.0; 
stroke:#000000; stroke-width:157.48; stroke-opacity:1; 
stroke-linecap:round; stroke-linejoin:round;">
<path d="M70360 74099
L70810 74099
" />
<path d="M70486 74886
L70585 74099
" />
<path d="M70974 74886
L71039 74361
" />
<path d="M71072 74099
L71030 74136
L71063 74174
L71105 74136
L71072 74099
L71063 74174
" />
<path d="M71302 74361
L71602 74361
" />
<path d="M71447 74099
L71363 74774
L71391 74849
L71461 74886
L71536 74886
" />
<path d="M71911 74886
L71841 74849
L71813 74774
L71897 74099
" />
<path d="M72516 74849
L72436 74886
L72286 74886
L72216 74849
L72187 74774
L72225 74474
L72272 74399
L72352 74361
L72501 74361
L72572 74399
L72600 74474
L72591 74549
L72206 74624
" />
<path d="M72895 74811
L72928 74849
L72886 74886
L72853 74849
L72895 74811
L72886 74886
" />
<path d="M72947 74399
L72980 74436
L72937 74474
L72905 74436
L72947 74399
L72937 74474
" />
</g>
<g style="fill:#000000; fill-opacity:0.0; 
stroke:#000000; stroke-width:39.3701; stroke-opacity:1; 
stroke-linecap:round; stroke-linejoin:round;">
</g>
<g style="fill:#000000; fill-opacity:0.0; 
stroke:#000000; stroke-width:59.0551; stroke-opacity:1; 
stroke-linecap:round; stroke-linejoin:round;">
<path d="M70446 73070
L70249 73070
" />
<path d="M70249 73380
L70249 72789
L70530 72789
" />
<path d="M70755 73380
L70755 72986
" />
<path d="M70755 72789
L70727 72817
L70755 72845
L70784 72817
L70755 72789
L70755 72845
" />
<path d="M71121 73380
L71065 73352
L71037 73295
L71037 72789
" />
<path d="M71571 73352
L71515 73380
L71402 73380
L71346 73352
L71318 73295
L71318 73070
L71346 73014
L71402 72986
L71515 72986
L71571 73014
L71599 73070
L71599 73127
L71318 73183
" />
<path d="M71852 73323
L71880 73352
L71852 73380
L71824 73352
L71852 73323
L71852 73380
" />
<path d="M71852 73014
L71880 73042
L71852 73070
L71824 73042
L71852 73014
L71852 73070
" />
<path d="M72527 72986
L72668 73380
L72808 72986
" />
<path d="M73258 73352
L73202 73380
L73090 73380
L73033 73352
L73005 73295
L73005 73070
L73033 73014
L73090 72986
L73202 72986
L73258 73014
L73286 73070
L73286 73127
L73005 73183
" />
<path d="M73539 73380
L73539 72986
" />
<path d="M73539 73099
L73568 73042
L73596 73014
L73652 72986
L73708 72986
" />
<path d="M73905 73380
L73905 72986
" />
<path d="M73905 72789
L73877 72817
L73905 72845
L73933 72817
L73905 72789
L73905 72845
" />
<path d="M74271 73380
L74214 73352
L74186 73295
L74186 72789
" />
<path d="M74580 73380
L74524 73352
L74496 73323
L74467 73267
L74467 73099
L74496 73042
L74524 73014
L74580 72986
L74664 72986
L74721 73014
L74749 73042
L74777 73099
L74777 73267
L74749 73323
L74721 73352
L74664 73380
L74580 73380
" />
<path d="M75283 72986
L75283 73464
L75255 73520
L75227 73548
L75171 73577
L75086 73577
L75030 73548
" />
<path d="M75283 73352
L75227 73380
L75114 73380
L75058 73352
L75030 73323
L75002 73267
L75002 73099
L75030 73042
L75058 73014
L75114 72986
L75227 72986
L75283 73014
" />
<path d="M75564 73155
L76014 73155
" />
<path d="M76548 73380
L76548 73070
L76520 73014
L76464 72986
L76352 72986
L76295 73014
" />
<path d="M76548 73352
L76492 73380
L76352 73380
L76295 73352
L76267 73295
L76267 73239
L76295 73183
L76352 73155
L76492 73155
L76548 73127
" />
<path d="M76914 73380
L76858 73352
L76830 73295
L76830 72789
" />
<path d="M77392 72986
L77392 73380
" />
<path d="M77139 72986
L77139 73295
L77167 73352
L77223 73380
L77308 73380
L77364 73352
L77392 73323
" />
<path d="M77673 73155
L78123 73155
" />
<path d="M78404 73380
L78404 72789
" />
<path d="M78461 73155
L78629 73380
" />
<path d="M78629 72986
L78404 73211
" />
<path d="M78883 73380
L78883 72986
" />
<path d="M78883 72789
L78854 72817
L78883 72845
L78911 72817
L78883 72789
L78883 72845
" />
<path d="M79417 73352
L79361 73380
L79248 73380
L79192 73352
L79164 73323
L79136 73267
L79136 73099
L79164 73042
L79192 73014
L79248 72986
L79361 72986
L79417 73014
" />
<path d="M79923 73380
L79923 73070
L79895 73014
L79839 72986
L79726 72986
L79670 73014
" />
<path d="M79923 73352
L79867 73380
L79726 73380
L79670 73352
L79642 73295
L79642 73239
L79670 73183
L79726 73155
L79867 73155
L79923 73127
" />
<path d="M80457 73380
L80457 72789
" />
<path d="M80457 73352
L80401 73380
L80289 73380
L80232 73352
L80204 73323
L80176 73267
L80176 73099
L80204 73042
L80232 73014
L80289 72986
L80401 72986
L80457 73014
" />
<path d="M80739 73323
L80767 73352
L80739 73380
L80710 73352
L80739 73323
L80739 73380
" />
<path d="M81020 73380
L81020 72789
" />
<path d="M81076 73155
L81245 73380
" />
<path d="M81245 72986
L81020 73211
" />
<path d="M81498 73380
L81498 72986
" />
<path d="M81498 72789
L81470 72817
L81498 72845
L81526 72817
L81498 72789
L81498 72845
" />
<path d="M82032 73352
L81976 73380
L81863 73380
L81807 73352
L81779 73323
L81751 73267
L81751 73099
L81779 73042
L81807 73014
L81863 72986
L81976 72986
L82032 73014
" />
<path d="M82538 73380
L82538 73070
L82510 73014
L82454 72986
L82341 72986
L82285 73014
" />
<path d="M82538 73352
L82482 73380
L82341 73380
L82285 73352
L82257 73295
L82257 73239
L82285 73183
L82341 73155
L82482 73155
L82538 73127
" />
<path d="M83073 73380
L83073 72789
" />
<path d="M83073 73352
L83016 73380
L82904 73380
L82848 73352
L82820 73323
L82791 73267
L82791 73099
L82820 73042
L82848 73014
L82904 72986
L83016 72986
L83073 73014
" />
<path d="M83213 73436
L83663 73436
" />
<path d="M83804 72986
L83804 73577
" />
<path d="M83804 73014
L83860 72986
L83973 72986
L84029 73014
L84057 73042
L84085 73099
L84085 73267
L84057 73323
L84029 73352
L83973 73380
L83860 73380
L83804 73352
" />
<path d="M84591 73352
L84535 73380
L84422 73380
L84366 73352
L84338 73323
L84310 73267
L84310 73099
L84338 73042
L84366 73014
L84422 72986
L84535 72986
L84591 73014
" />
<path d="M84844 73380
L84844 72789
" />
<path d="M84844 73014
L84901 72986
L85013 72986
L85069 73014
L85097 73042
L85126 73099
L85126 73267
L85097 73323
L85069 73352
L85013 73380
L84901 73380
L84844 73352
" />
</g>
<g style="fill:#000000; fill-opacity:0.0; 
stroke:#000000; stroke-width:39.3701; stroke-opacity:1; 
stroke-linecap:round; stroke-linejoin:round;">
</g>
<g style="fill:#000000; fill-opacity:0.0; 
stroke:#000000; stroke-width:59.0551; stroke-opacity:1; 
stroke-linecap:round; stroke-linejoin:round;">
<path d="M69685 71459
L112205 71459
" />
</g>
<g style="fill:#000000; fill-opacity:0.0; 
stroke:#000000; stroke-width:39.3701; stroke-opacity:1; 
stroke-linecap:round; stroke-linejoin:round;">
</g>
<g style="fill:#000000; fill-opacity:0.0; 
stroke:#000000; stroke-width:59.0551; stroke-opacity:1; 
stroke-linecap:round; stroke-linejoin:round;">
<path d="M70221 72289
L70305 72317
L70446 72317
L70502 72289
L70530 72260
L70559 72204
L70559 72148
L70530 72092
L70502 72064
L70446 72036
L70334 72007
L70277 71979
L70249 71951
L70221 71895
L70221 71839
L70249 71782
L70277 71754
L70334 71726
L70474 71726
L70559 71754
" />
<path d="M70812 72317
L70812 71726
" />
<path d="M71065 72317
L71065 72007
L71037 71951
L70980 71923
L70896 71923
L70840 71951
L70812 71979
" />
<path d="M71571 72289
L71515 72317
L71402 72317
L71346 72289
L71318 72232
L71318 72007
L71346 71951
L71402 71923
L71515 71923
L71571 71951
L71599 72007
L71599 72064
L71318 72120
" />
<path d="M72077 72289
L72021 72317
L71908 72317
L71852 72289
L71824 72232
L71824 72007
L71852 71951
L71908 71923
L72021 71923
L72077 71951
L72105 72007
L72105 72064
L71824 72120
" />
<path d="M72274 71923
L72499 71923
" />
<path d="M72358 71726
L72358 72232
L72386 72289
L72443 72317
L72499 72317
" />
<path d="M72696 72260
L72724 72289
L72696 72317
L72668 72289
L72696 72260
L72696 72317
" />
<path d="M72696 71951
L72724 71979
L72696 72007
L72668 71979
L72696 71951
L72696 72007
" />
</g>
<g style="fill:#000000; fill-opacity:0.0; 
stroke:#000000; stroke-width:39.3701; stroke-opacity:1; 
stroke-linecap:round; stroke-linejoin:round;">
</g>
<g style="fill:#000000; fill-opacity:0.0; 
stroke:#000000; stroke-width:59.0551; stroke-opacity:1; 
stroke-linecap:round; stroke-linejoin:round;">
<path d="M77559 75396
L77559 76577
" />
</g>
<g style="fill:#000000; fill-opacity:0.0; 
stroke:#000000; stroke-width:39.3701; stroke-opacity:1; 
stroke-linecap:round; stroke-linejoin:round;">
</g>
<g style="fill:#000000; fill-opacity:0.0; 
stroke:#000000; stroke-width:59.0551; stroke-opacity:1; 
stroke-linecap:round; stroke-linejoin:round;">
<path d="M102756 75396
L102756 77955
" />
</g>
<g style="fill:#008484; fill-opacity:0.0; 
stroke:#008484; stroke-width:59.0551; stroke-opacity:1; 
stroke-linecap:round; stroke-linejoin:round;">
</g>
<g style="fill:#008484; fill-opacity:0.0; 
stroke:#008484; stroke-width:39.3701; stroke-opacity:1; 
stroke-linecap:round; stroke-linejoin:round;">
<path d="M34039 -263460
L34039 -263657
" />
<path d="M34039 -263460
L33842 -263460
" />
<path d="M29956 -263460
L30153 -263460
" />
<path d="M29956 -263460
L29956 -263657
" />
<path d="M29948 -270551
L29948 -270354
" />
<path d="M29948 -270551
L30145 -270551
" />
<path d="M34043 -270551
L34043 -270354
" />
<path d="M34043 -270551
L33846 -270551
" />
<path d="M40039 -263460
L40039 -263657
" />
<path d="M40039 -263460
L39842 -263460
" />
<path d="M35956 -263460
L36153 -263460
" />
<path d="M35956 -263460
L35956 -263657
" />
<path d="M35948 -270551
L35948 -270354
" />
<path d="M35948 -270551
L36145 -270551
" />
<path d="M40043 -270551
L40043 -270354
" />
<path d="M40043 -270551
L39846 -270551
" />
<path d="M28043 -270551
L27846 -270551
" />
<path d="M28043 -270551
L28043 -270354
" />
<path d="M23948 -270551
L24145 -270551
" />
<path d="M23948 -270551
L23948 -270354
" />
<path d="M23956 -263460
L23956 -263657
" />
<path d="M23956 -263460
L24153 -263460
" />
<path d="M28039 -263460
L27842 -263460
" />
<path d="M28039 -263460
L28039 -263657
" />
<path d="M46043 -270551
L45846 -270551
" />
<path d="M46043 -270551
L46043 -270354
" />
<path d="M41948 -270551
L42145 -270551
" />
<path d="M41948 -270551
L41948 -270354
" />
<path d="M41956 -263460
L41956 -263657
" />
<path d="M41956 -263460
L42153 -263460
" />
<path d="M46039 -263460
L45842 -263460
" />
<path d="M46039 -263460
L46039 -263657
" />
</g>
<g style="fill:#008484; fill-opacity:0.0; 
stroke:#008484; stroke-width:47.2441; stroke-opacity:1; 
stroke-linecap:round; stroke-linejoin:round;">
<path d="M21976 -263476
L23023 -263476
" />
<path d="M21976 -264500
L21976 -263476
" />
<path d="M23023 -264500
L23023 -263476
" />
<path d="M21976 -264500
L23023 -264500
" />
<path d="M21976 -265000
L21976 -265523
" />
<path d="M21976 -265523
L22500 -265523
" />
<path d="M21976 -268476
L23023 -268476
" />
<path d="M21976 -269500
L21976 -268476
" />
<path d="M23023 -269500
L23023 -268476
" />
<path d="M21976 -269500
L23023 -269500
" />
<path d="M21976 -270000
L21976 -270523
" />
<path d="M21976 -270523
L22500 -270523
" />
<path d="M31194 -273305
L31718 -273305
" />
<path d="M31194 -272781
L31194 -273305
" />
<path d="M31194 -272281
L32242 -272281
" />
<path d="M32242 -272281
L32242 -271257
" />
<path d="M31194 -272281
L31194 -271257
" />
<path d="M31194 -271257
L32242 -271257
" />
<path d="M33025 -271257
L34072 -271257
" />
<path d="M33025 -272281
L33025 -271257
" />
<path d="M34072 -272281
L34072 -271257
" />
<path d="M33025 -272281
L34072 -272281
" />
<path d="M33025 -272781
L33025 -273305
" />
<path d="M33025 -273305
L33549 -273305
" />
<path d="M34856 -271257
L35903 -271257
" />
<path d="M34856 -272281
L34856 -271257
" />
<path d="M35903 -272281
L35903 -271257
" />
<path d="M34856 -272281
L35903 -272281
" />
<path d="M34856 -272781
L34856 -273305
" />
<path d="M34856 -273305
L35379 -273305
" />
</g>
<g style="fill:#008484; fill-opacity:0.0; 
stroke:#008484; stroke-width:59.0551; stroke-opacity:1; 
stroke-linecap:round; stroke-linejoin:round;">
<path d="M30440 -270735
L30440 -271128
L30665 -270735
L30665 -271128
" />
<path d="M30834 -270847
L31021 -270847
" />
<path d="M30796 -270735
L30928 -271128
L31059 -270735
" />
<path d="M31190 -270735
L31190 -271128
L31415 -270735
L31415 -271128
" />
<path d="M31603 -270735
L31603 -271128
L31696 -271128
L31753 -271110
L31790 -271072
L31809 -271035
L31828 -270960
L31828 -270904
L31809 -270829
L31790 -270791
L31753 -270754
L31696 -270735
L31603 -270735
" />
<path d="M31996 -270885
L32296 -270885
" />
<path d="M32484 -270735
L32484 -271128
" />
<path d="M32896 -270772
L32877 -270754
L32821 -270735
L32784 -270735
L32727 -270754
L32690 -270791
L32671 -270829
L32652 -270904
L32652 -270960
L32671 -271035
L32690 -271072
L32727 -271110
L32784 -271128
L32821 -271128
L32877 -271110
L32896 -271091
" />
<path d="M33065 -270885
L33365 -270885
" />
<path d="M33515 -271128
L33759 -271128
L33627 -270979
L33684 -270979
L33721 -270960
L33740 -270941
L33759 -270904
L33759 -270810
L33740 -270772
L33721 -270754
L33684 -270735
L33571 -270735
L33534 -270754
L33515 -270772
" />
<path d="M36440 -270735
L36440 -271128
L36665 -270735
L36665 -271128
" />
<path d="M36834 -270847
L37021 -270847
" />
<path d="M36796 -270735
L36928 -271128
L37059 -270735
" />
<path d="M37190 -270735
L37190 -271128
L37415 -270735
L37415 -271128
" />
<path d="M37603 -270735
L37603 -271128
L37696 -271128
L37753 -271110
L37790 -271072
L37809 -271035
L37828 -270960
L37828 -270904
L37809 -270829
L37790 -270791
L37753 -270754
L37696 -270735
L37603 -270735
" />
<path d="M37996 -270885
L38296 -270885
" />
<path d="M38484 -270735
L38484 -271128
" />
<path d="M38896 -270772
L38877 -270754
L38821 -270735
L38784 -270735
L38727 -270754
L38690 -270791
L38671 -270829
L38652 -270904
L38652 -270960
L38671 -271035
L38690 -271072
L38727 -271110
L38784 -271128
L38821 -271128
L38877 -271110
L38896 -271091
" />
<path d="M39065 -270885
L39365 -270885
" />
<path d="M39534 -271091
L39552 -271110
L39590 -271128
L39684 -271128
L39721 -271110
L39740 -271091
L39759 -271053
L39759 -271016
L39740 -270960
L39515 -270735
L39759 -270735
" />
<path d="M24440 -270735
L24440 -271128
L24665 -270735
L24665 -271128
" />
<path d="M24834 -270847
L25021 -270847
" />
<path d="M24796 -270735
L24928 -271128
L25059 -270735
" />
<path d="M25190 -270735
L25190 -271128
L25415 -270735
L25415 -271128
" />
<path d="M25603 -270735
L25603 -271128
L25696 -271128
L25753 -271110
L25790 -271072
L25809 -271035
L25828 -270960
L25828 -270904
L25809 -270829
L25790 -270791
L25753 -270754
L25696 -270735
L25603 -270735
" />
<path d="M25996 -270885
L26296 -270885
" />
<path d="M26484 -270735
L26484 -271128
" />
<path d="M26896 -270772
L26877 -270754
L26821 -270735
L26784 -270735
L26727 -270754
L26690 -270791
L26671 -270829
L26652 -270904
L26652 -270960
L26671 -271035
L26690 -271072
L26727 -271110
L26784 -271128
L26821 -271128
L26877 -271110
L26896 -271091
" />
<path d="M27065 -270885
L27365 -270885
" />
<path d="M27759 -270735
L27534 -270735
" />
<path d="M27646 -270735
L27646 -271128
L27609 -271072
L27571 -271035
L27534 -271016
" />
<path d="M42440 -270735
L42440 -271128
L42665 -270735
L42665 -271128
" />
<path d="M42834 -270847
L43021 -270847
" />
<path d="M42796 -270735
L42928 -271128
L43059 -270735
" />
<path d="M43190 -270735
L43190 -271128
L43415 -270735
L43415 -271128
" />
<path d="M43603 -270735
L43603 -271128
L43696 -271128
L43753 -271110
L43790 -271072
L43809 -271035
L43828 -270960
L43828 -270904
L43809 -270829
L43790 -270791
L43753 -270754
L43696 -270735
L43603 -270735
" />
<path d="M43996 -270885
L44296 -270885
" />
<path d="M44484 -270735
L44484 -271128
" />
<path d="M44896 -270772
L44877 -270754
L44821 -270735
L44784 -270735
L44727 -270754
L44690 -270791
L44671 -270829
L44652 -270904
L44652 -270960
L44671 -271035
L44690 -271072
L44727 -271110
L44784 -271128
L44821 -271128
L44877 -271110
L44896 -271091
" />
<path d="M45065 -270885
L45365 -270885
" />
<path d="M45721 -270997
L45721 -270735
" />
<path d="M45627 -271147
L45534 -270866
L45777 -270866
" />
<path d="M20962 -266132
L20962 -265851
L20943 -265795
L20906 -265757
L20850 -265739
L20812 -265739
" />
<path d="M21093 -266132
L21225 -265739
L21356 -266132
" />
<path d="M21712 -265776
L21693 -265757
L21637 -265739
L21600 -265739
L21543 -265757
L21506 -265795
L21487 -265832
L21468 -265907
L21468 -265964
L21487 -266039
L21506 -266076
L21543 -266114
L21600 -266132
L21637 -266132
L21693 -266114
L21712 -266095
" />
<path d="M22106 -265776
L22087 -265757
L22031 -265739
L21993 -265739
L21937 -265757
L21900 -265795
L21881 -265832
L21862 -265907
L21862 -265964
L21881 -266039
L21900 -266076
L21937 -266114
L21993 -266132
L22031 -266132
L22087 -266114
L22106 -266095
" />
<path d="M22593 -265739
L22574 -265739
L22537 -265757
L22481 -265814
L22387 -265926
L22350 -265982
L22331 -266039
L22331 -266076
L22350 -266114
L22387 -266132
L22406 -266132
L22443 -266114
L22462 -266076
L22462 -266057
L22443 -266020
L22425 -266001
L22312 -265926
L22293 -265907
L22275 -265870
L22275 -265814
L22293 -265776
L22312 -265757
L22350 -265739
L22406 -265739
L22443 -265757
L22462 -265776
L22518 -265851
L22537 -265907
L22537 -265945
" />
<path d="M22968 -266114
L22931 -266132
L22874 -266132
L22818 -266114
L22781 -266076
L22762 -266039
L22743 -265964
L22743 -265907
L22762 -265832
L22781 -265795
L22818 -265757
L22874 -265739
L22912 -265739
L22968 -265757
L22987 -265776
L22987 -265907
L22912 -265907
" />
<path d="M23156 -265739
L23156 -266132
L23381 -265739
L23381 -266132
" />
<path d="M23568 -265739
L23568 -266132
L23662 -266132
L23718 -266114
L23756 -266076
L23774 -266039
L23793 -265964
L23793 -265907
L23774 -265832
L23756 -265795
L23718 -265757
L23662 -265739
L23568 -265739
" />
<path d="M24168 -265739
L23943 -265739
" />
<path d="M24056 -265739
L24056 -266132
L24018 -266076
L23981 -266039
L23943 -266020
" />
<path d="M21778 -270851
L21965 -270851
" />
<path d="M21740 -270739
L21871 -271132
L22003 -270739
" />
<path d="M22453 -270739
L22434 -270739
L22396 -270757
L22340 -270814
L22246 -270926
L22209 -270982
L22190 -271039
L22190 -271076
L22209 -271114
L22246 -271132
L22265 -271132
L22303 -271114
L22321 -271076
L22321 -271057
L22303 -271020
L22284 -271001
L22171 -270926
L22153 -270907
L22134 -270870
L22134 -270814
L22153 -270776
L22171 -270757
L22209 -270739
L22265 -270739
L22303 -270757
L22321 -270776
L22378 -270851
L22396 -270907
L22396 -270945
" />
<path d="M22753 -270945
L22809 -270926
L22828 -270907
L22846 -270870
L22846 -270814
L22828 -270776
L22809 -270757
L22771 -270739
L22621 -270739
L22621 -271132
L22753 -271132
L22790 -271114
L22809 -271095
L22828 -271057
L22828 -271020
L22809 -270982
L22790 -270964
L22753 -270945
L22621 -270945
" />
<path d="M23221 -270739
L22996 -270739
" />
<path d="M23109 -270739
L23109 -271132
L23071 -271076
L23034 -271039
L22996 -271020
" />
<path d="M27378 -273859
L27359 -273840
L27303 -273821
L27265 -273821
L27209 -273840
L27172 -273878
L27153 -273915
L27134 -273990
L27134 -274046
L27153 -274121
L27172 -274159
L27209 -274196
L27265 -274215
L27303 -274215
L27359 -274196
L27378 -274178
" />
<path d="M27865 -273821
L27847 -273821
L27809 -273840
L27753 -273896
L27659 -274009
L27622 -274065
L27603 -274121
L27603 -274159
L27622 -274196
L27659 -274215
L27678 -274215
L27715 -274196
L27734 -274159
L27734 -274140
L27715 -274103
L27697 -274084
L27584 -274009
L27565 -273990
L27547 -273953
L27547 -273896
L27565 -273859
L27584 -273840
L27622 -273821
L27678 -273821
L27715 -273840
L27734 -273859
L27790 -273934
L27809 -273990
L27809 -274028
" />
<path d="M28203 -273821
L28203 -274215
" />
<path d="M28203 -273840
L28165 -273821
L28090 -273821
L28053 -273840
L28034 -273859
L28015 -273896
L28015 -274009
L28034 -274046
L28053 -274065
L28090 -274084
L28165 -274084
L28203 -274065
" />
<path d="M28540 -273840
L28503 -273821
L28428 -273821
L28390 -273840
L28371 -273878
L28371 -274028
L28390 -274065
L28428 -274084
L28503 -274084
L28540 -274065
L28559 -274028
L28559 -273990
L28371 -273953
" />
<path d="M28896 -273840
L28859 -273821
L28784 -273821
L28746 -273840
L28728 -273859
L28709 -273896
L28709 -274009
L28728 -274046
L28746 -274065
L28784 -274084
L28859 -274084
L28896 -274065
" />
<path d="M29121 -273821
L29084 -273840
L29065 -273859
L29046 -273896
L29046 -274009
L29065 -274046
L29084 -274065
L29121 -274084
L29178 -274084
L29215 -274065
L29234 -274046
L29253 -274009
L29253 -273896
L29234 -273859
L29215 -273840
L29178 -273821
L29121 -273821
" />
<path d="M29590 -273821
L29590 -274215
" />
<path d="M29590 -273840
L29553 -273821
L29478 -273821
L29440 -273840
L29421 -273859
L29403 -273896
L29403 -274009
L29421 -274046
L29440 -274065
L29478 -274084
L29553 -274084
L29590 -274065
" />
<path d="M29928 -273840
L29890 -273821
L29815 -273821
L29778 -273840
L29759 -273878
L29759 -274028
L29778 -274065
L29815 -274084
L29890 -274084
L29928 -274065
L29946 -274028
L29946 -273990
L29759 -273953
" />
<path d="M30115 -273821
L30115 -274084
" />
<path d="M30115 -274009
L30134 -274046
L30152 -274065
L30190 -274084
L30227 -274084
" />
<path d="M30265 -273784
L30565 -273784
" />
<path d="M30734 -274215
L30771 -274215
L30809 -274196
L30827 -274178
L30846 -274140
L30865 -274065
L30865 -273971
L30846 -273896
L30827 -273859
L30809 -273840
L30771 -273821
L30734 -273821
L30696 -273840
L30677 -273859
L30659 -273896
L30640 -273971
L30640 -274065
L30659 -274140
L30677 -274178
L30696 -274196
L30734 -274215
" />
<path d="M32065 -273859
L32047 -273840
L31990 -273821
L31953 -273821
L31897 -273840
L31859 -273878
L31840 -273915
L31822 -273990
L31822 -274046
L31840 -274121
L31859 -274159
L31897 -274196
L31953 -274215
L31990 -274215
L32047 -274196
L32065 -274178
" />
<path d="M32290 -273821
L32253 -273840
L32234 -273859
L32215 -273896
L32215 -274009
L32234 -274046
L32253 -274065
L32290 -274084
L32347 -274084
L32384 -274065
L32403 -274046
L32422 -274009
L32422 -273896
L32403 -273859
L32384 -273840
L32347 -273821
L32290 -273821
" />
<path d="M32759 -274084
L32759 -273821
" />
<path d="M32590 -274084
L32590 -273878
L32609 -273840
L32646 -273821
L32703 -273821
L32740 -273840
L32759 -273859
" />
<path d="M32890 -274084
L33040 -274084
" />
<path d="M32946 -274215
L32946 -273878
L32965 -273840
L33003 -273821
L33040 -273821
" />
<path d="M33490 -273821
L33471 -273821
L33434 -273840
L33378 -273896
L33284 -274009
L33246 -274065
L33228 -274121
L33228 -274159
L33246 -274196
L33284 -274215
L33303 -274215
L33340 -274196
L33359 -274159
L33359 -274140
L33340 -274103
L33321 -274084
L33209 -274009
L33190 -273990
L33171 -273953
L33171 -273896
L33190 -273859
L33209 -273840
L33246 -273821
L33303 -273821
L33340 -273840
L33359 -273859
L33415 -273934
L33434 -273990
L33434 -274028
" />
<path d="M33640 -273840
L33696 -273821
L33790 -273821
L33828 -273840
L33846 -273859
L33865 -273896
L33865 -273934
L33846 -273971
L33828 -273990
L33790 -274009
L33715 -274028
L33678 -274046
L33659 -274065
L33640 -274103
L33640 -274140
L33659 -274178
L33678 -274196
L33715 -274215
L33809 -274215
L33865 -274196
" />
<path d="M34090 -273821
L34053 -273840
L34034 -273859
L34015 -273896
L34015 -274009
L34034 -274046
L34053 -274065
L34090 -274084
L34146 -274084
L34184 -274065
L34203 -274046
L34221 -274009
L34221 -273896
L34203 -273859
L34184 -273840
L34146 -273821
L34090 -273821
" />
<path d="M34559 -274084
L34559 -273821
" />
<path d="M34390 -274084
L34390 -273878
L34409 -273840
L34446 -273821
L34502 -273821
L34540 -273840
L34559 -273859
" />
<path d="M34690 -274084
L34840 -274084
" />
<path d="M34746 -274215
L34746 -273878
L34765 -273840
L34802 -273821
L34840 -273821
" />
<path d="M35177 -273821
L34952 -273821
" />
<path d="M35065 -273821
L35065 -274215
L35027 -274159
L34990 -274121
L34952 -274103
" />
<path d="M36038 -273821
L36038 -274215
" />
<path d="M36225 -274084
L36225 -273821
" />
<path d="M36225 -274046
L36244 -274065
L36281 -274084
L36338 -274084
L36375 -274065
L36394 -274028
L36394 -273821
" />
<path d="M36581 -274084
L36581 -273690
" />
<path d="M36581 -274065
L36619 -274084
L36694 -274084
L36731 -274065
L36750 -274046
L36769 -274009
L36769 -273896
L36750 -273859
L36731 -273840
L36694 -273821
L36619 -273821
L36581 -273840
" />
<path d="M37106 -274084
L37106 -273821
" />
<path d="M36937 -274084
L36937 -273878
L36956 -273840
L36994 -273821
L37050 -273821
L37087 -273840
L37106 -273859
" />
<path d="M37237 -274084
L37387 -274084
" />
<path d="M37294 -274215
L37294 -273878
L37312 -273840
L37350 -273821
L37387 -273821
" />
<path d="M37500 -273840
L37556 -273821
L37650 -273821
L37687 -273840
L37706 -273859
L37725 -273896
L37725 -273934
L37706 -273971
L37687 -273990
L37650 -274009
L37575 -274028
L37537 -274046
L37519 -274065
L37500 -274103
L37500 -274140
L37519 -274178
L37537 -274196
L37575 -274215
L37669 -274215
L37725 -274196
" />
<path d="M38044 -273840
L38006 -273821
L37931 -273821
L37894 -273840
L37875 -273878
L37875 -274028
L37894 -274065
L37931 -274084
L38006 -274084
L38044 -274065
L38062 -274028
L38062 -273990
L37875 -273953
" />
<path d="M38287 -273821
L38250 -273840
L38231 -273878
L38231 -274215
" />
<path d="M38587 -273840
L38550 -273821
L38475 -273821
L38437 -273840
L38419 -273878
L38419 -274028
L38437 -274065
L38475 -274084
L38550 -274084
L38587 -274065
L38606 -274028
L38606 -273990
L38419 -273953
" />
<path d="M38943 -273840
L38906 -273821
L38831 -273821
L38793 -273840
L38775 -273859
L38756 -273896
L38756 -274009
L38775 -274046
L38793 -274065
L38831 -274084
L38906 -274084
L38943 -274065
" />
<path d="M39056 -274084
L39206 -274084
" />
<path d="M39112 -274215
L39112 -273878
L39131 -273840
L39168 -273821
L39206 -273821
" />
<path d="M39393 -273821
L39356 -273840
L39337 -273859
L39318 -273896
L39318 -274009
L39337 -274046
L39356 -274065
L39393 -274084
L39450 -274084
L39487 -274065
L39506 -274046
L39525 -274009
L39525 -273896
L39506 -273859
L39487 -273840
L39450 -273821
L39393 -273821
" />
<path d="M39693 -273821
L39693 -274084
" />
<path d="M39693 -274009
L39712 -274046
L39731 -274065
L39768 -274084
L39806 -274084
" />
<path d="M40256 -273821
L40237 -273821
L40200 -273840
L40143 -273896
L40050 -274009
L40012 -274065
L39993 -274121
L39993 -274159
L40012 -274196
L40050 -274215
L40068 -274215
L40106 -274196
L40125 -274159
L40125 -274140
L40106 -274103
L40087 -274084
L39975 -274009
L39956 -273990
L39937 -273953
L39937 -273896
L39956 -273859
L39975 -273840
L40012 -273821
L40068 -273821
L40106 -273840
L40125 -273859
L40181 -273934
L40200 -273990
L40200 -274028
" />
<path d="M40500 -274215
L40574 -274215
L40612 -274196
L40649 -274159
L40668 -274084
L40668 -273953
L40649 -273878
L40612 -273840
L40574 -273821
L40500 -273821
L40462 -273840
L40425 -273878
L40406 -273953
L40406 -274084
L40425 -274159
L40462 -274196
L40500 -274215
" />
<path d="M41006 -274084
L41006 -273821
" />
<path d="M40837 -274084
L40837 -273878
L40856 -273840
L40893 -273821
L40949 -273821
L40987 -273840
L41006 -273859
" />
<path d="M41137 -274084
L41287 -274084
" />
<path d="M41193 -274215
L41193 -273878
L41212 -273840
L41249 -273821
L41287 -273821
" />
<path d="M41418 -274084
L41418 -273690
" />
<path d="M41418 -274065
L41456 -274084
L41531 -274084
L41568 -274065
L41587 -274046
L41606 -274009
L41606 -273896
L41587 -273859
L41568 -273840
L41531 -273821
L41456 -273821
L41418 -273840
" />
<path d="M41943 -274084
L41943 -273821
" />
<path d="M41774 -274084
L41774 -273878
L41793 -273840
L41831 -273821
L41887 -273821
L41924 -273840
L41943 -273859
" />
<path d="M42074 -274084
L42224 -274084
" />
<path d="M42131 -274215
L42131 -273878
L42149 -273840
L42187 -273821
L42224 -273821
" />
<path d="M42337 -273840
L42393 -273821
L42487 -273821
L42524 -273840
L42543 -273859
L42562 -273896
L42562 -273934
L42543 -273971
L42524 -273990
L42487 -274009
L42412 -274028
L42374 -274046
L42356 -274065
L42337 -274103
L42337 -274140
L42356 -274178
L42374 -274196
L42412 -274215
L42505 -274215
L42562 -274196
" />
<path d="M42880 -273840
L42843 -273821
L42768 -273821
L42730 -273840
L42712 -273878
L42712 -274028
L42730 -274065
L42768 -274084
L42843 -274084
L42880 -274065
L42899 -274028
L42899 -273990
L42712 -273953
" />
<path d="M43124 -273821
L43087 -273840
L43068 -273878
L43068 -274215
" />
<path d="M43424 -273840
L43387 -273821
L43312 -273821
L43274 -273840
L43255 -273878
L43255 -274028
L43274 -274065
L43312 -274084
L43387 -274084
L43424 -274065
L43443 -274028
L43443 -273990
L43255 -273953
" />
<path d="M43780 -273840
L43743 -273821
L43668 -273821
L43630 -273840
L43612 -273859
L43593 -273896
L43593 -274009
L43612 -274046
L43630 -274065
L43668 -274084
L43743 -274084
L43780 -274065
" />
<path d="M43893 -274084
L44043 -274084
" />
<path d="M43949 -274215
L43949 -273878
L43968 -273840
L44005 -273821
L44043 -273821
" />
<path d="M44230 -273821
L44193 -273840
L44174 -273859
L44155 -273896
L44155 -274009
L44174 -274046
L44193 -274065
L44230 -274084
L44287 -274084
L44324 -274065
L44343 -274046
L44362 -274009
L44362 -273896
L44343 -273859
L44324 -273840
L44287 -273821
L44230 -273821
" />
<path d="M44530 -273821
L44530 -274084
" />
<path d="M44530 -274009
L44549 -274046
L44568 -274065
L44605 -274084
L44643 -274084
" />
<path d="M44980 -273821
L44755 -273821
" />
<path d="M44868 -273821
L44868 -274215
L44830 -274159
L44793 -274121
L44755 -274103
" />
<g >
</g>
</g>
<g style="fill:#000000; fill-opacity:0.0; 
stroke:#000000; stroke-width:59.0551; stroke-opacity:1; 
stroke-linecap:round; stroke-linejoin:round;">
<g >
</g>
<g >
</g>
<g >
</g>
<g >
</g>
<g >
</g>
<g >
</g>
<g >
</g>
<g >
</g>
<g >
</g>
<g >
</g>
</g> 
</svg>
